<svg xmlns="http://www.w3.org/2000/svg" xmlns:xlink="http://www.w3.org/1999/xlink" contentStyleType="text/css" data-diagram-type="DESCRIPTION" height="987px" preserveAspectRatio="none" style="width:855px;height:987px;background:#FFFFFF;" version="1.1" viewBox="0 0 855 987" width="855px" zoomAndPan="magnify"><defs/><g><!--cluster API Gateway--><g class="cluster" data-entity="API Gateway" data-source-line="6" data-uid="ent0003" id="cluster_API Gateway"><rect fill="none" height="323.47" rx="2.5" ry="2.5" style="stroke:#181818;stroke-width:1;" width="212" x="458" y="144.99"/><text fill="#000000" font-family="sans-serif" font-size="14" font-weight="bold" lengthAdjust="spacing" textLength="89.168" x="519.416" y="160.5252">API Gateway</text></g><!--cluster Agent Layer--><g class="cluster" data-entity="Agent Layer" data-source-line="12" data-uid="ent0007" id="cluster_Agent Layer"><rect fill="none" height="205.47" rx="2.5" ry="2.5" style="stroke:#181818;stroke-width:1;" width="198" x="160" y="517.46"/><text fill="#000000" font-family="sans-serif" font-size="14" font-weight="bold" lengthAdjust="spacing" textLength="86.3311" x="215.8345" y="532.9952">Agent Layer</text></g><!--cluster AI Providers--><g class="cluster" data-entity="AI Providers" data-source-line="17" data-uid="ent0010" id="cluster_AI Providers"><rect fill="none" height="87.49" rx="2.5" ry="2.5" style="stroke:#181818;stroke-width:1;" width="334" x="45" y="774.43"/><text fill="#000000" font-family="sans-serif" font-size="14" font-weight="bold" lengthAdjust="spacing" textLength="88.0742" x="167.9629" y="789.9652">AI Providers</text></g><!--cluster Voice Pipeline--><g class="cluster" data-entity="Voice Pipeline" data-source-line="22" data-uid="ent0013" id="cluster_Voice Pipeline"><rect fill="none" height="323.47" rx="2.5" ry="2.5" style="stroke:#181818;stroke-width:1;" width="116" x="7" y="144.99"/><text fill="#000000" font-family="sans-serif" font-size="14" font-weight="bold" lengthAdjust="spacing" textLength="100.666" x="14.667" y="160.5252">Voice Pipeline</text></g><!--cluster Async Infrastructure--><g class="cluster" data-entity="Async Infrastructure" data-source-line="28" data-uid="ent0017" id="cluster_Async Infrastructure"><rect fill="none" height="205.47" rx="2.5" ry="2.5" style="stroke:#181818;stroke-width:1;" width="163" x="686" y="517.46"/><text fill="#000000" font-family="sans-serif" font-size="14" font-weight="bold" lengthAdjust="spacing" textLength="147.916" x="693.542" y="532.9952">Async Infrastructure</text></g><!--cluster Billing & Metering--><g class="cluster" data-entity="Billing . Metering" data-source-line="33" data-uid="ent0020" id="cluster_Billing . Metering"><rect fill="none" height="207.48" rx="2.5" ry="2.5" style="stroke:#181818;stroke-width:1;" width="177" x="403" y="774.43"/><text fill="#000000" font-family="sans-serif" font-size="14" font-weight="bold" lengthAdjust="spacing" textLength="129.2471" x="426.8765" y="789.9652">Billing &amp; Metering</text></g><!--entity Auth & Tenant Resolver--><g class="entity" data-entity="Auth . Tenant Resolver" data-source-line="7" data-uid="ent0004" id="entity_Auth . Tenant Resolver"><rect fill="#F1F1F1" height="36.4883" rx="2.5" ry="2.5" style="stroke:#181818;stroke-width:0.5;" width="179.5303" x="474.23" y="179.99"/><text fill="#000000" font-family="sans-serif" font-size="14" lengthAdjust="spacing" textLength="159.5303" x="484.23" y="203.5252">Auth &amp; Tenant Resolver</text></g><!--entity Idempotency Guard--><g class="entity" data-entity="Idempotency Guard" data-source-line="8" data-uid="ent0005" id="entity_Idempotency Guard"><rect fill="#F1F1F1" height="36.4883" rx="2.5" ry="2.5" style="stroke:#181818;stroke-width:0.5;" width="152.8428" x="487.58" y="297.98"/><text fill="#000000" font-family="sans-serif" font-size="14" lengthAdjust="spacing" textLength="132.8428" x="497.58" y="321.5152">Idempotency Guard</text></g><!--entity Request Router--><g class="entity" data-entity="Request Router" data-source-line="9" data-uid="ent0006" id="entity_Request Router"><rect fill="#F1F1F1" height="36.4883" rx="2.5" ry="2.5" style="stroke:#181818;stroke-width:0.5;" width="123.6602" x="474.17" y="415.97"/><text fill="#000000" font-family="sans-serif" font-size="14" lengthAdjust="spacing" textLength="103.6602" x="484.17" y="439.5052">Request Router</text></g><!--entity Agent Logic--><g class="entity" data-entity="Agent Logic" data-source-line="13" data-uid="ent0008" id="entity_Agent Logic"><rect fill="#F1F1F1" height="36.4883" rx="2.5" ry="2.5" style="stroke:#181818;stroke-width:0.5;" width="100.5547" x="208.72" y="552.46"/><text fill="#000000" font-family="sans-serif" font-size="14" lengthAdjust="spacing" textLength="80.5547" x="218.72" y="575.9952">Agent Logic</text></g><!--entity Provider Orchestrator--><g class="entity" data-entity="Provider Orchestrator" data-source-line="14" data-uid="ent0009" id="entity_Provider Orchestrator"><rect fill="#F1F1F1" height="36.4883" rx="2.5" ry="2.5" style="stroke:#181818;stroke-width:0.5;" width="165.79" x="176.1" y="670.45"/><text fill="#000000" font-family="sans-serif" font-size="14" lengthAdjust="spacing" textLength="145.79" x="186.1" y="693.9852">Provider Orchestrator</text></g><!--entity Primary Provider--><g class="entity" data-entity="Primary Provider" data-source-line="18" data-uid="ent0011" id="entity_Primary Provider"><rect fill="#F1F1F1" height="36.4883" rx="2.5" ry="2.5" style="stroke:#181818;stroke-width:0.5;" width="131.4873" x="61.26" y="809.43"/><text fill="#000000" font-family="sans-serif" font-size="14" lengthAdjust="spacing" textLength="111.4873" x="71.26" y="832.9652">Primary Provider</text></g><!--entity Fallback Provider--><g class="entity" data-entity="Fallback Provider" data-source-line="19" data-uid="ent0012" id="entity_Fallback Provider"><rect fill="#F1F1F1" height="36.4883" rx="2.5" ry="2.5" style="stroke:#181818;stroke-width:0.5;" width="135.3564" x="227.32" y="809.43"/><text fill="#000000" font-family="sans-serif" font-size="14" lengthAdjust="spacing" textLength="115.3564" x="237.32" y="832.9652">Fallback Provider</text></g><!--entity STT--><g class="entity" data-entity="STT" data-source-line="23" data-uid="ent0014" id="entity_STT"><rect fill="#F1F1F1" height="36.4883" rx="2.5" ry="2.5" style="stroke:#181818;stroke-width:0.5;" width="45.2451" x="42.38" y="179.99"/><text fill="#000000" font-family="sans-serif" font-size="14" lengthAdjust="spacing" textLength="25.2451" x="52.38" y="203.5252">STT</text></g><!--entity LLM--><g class="entity" data-entity="LLM" data-source-line="24" data-uid="ent0015" id="entity_LLM"><rect fill="#F1F1F1" height="36.4883" rx="2.5" ry="2.5" style="stroke:#181818;stroke-width:0.5;" width="46.9883" x="41.51" y="297.98"/><text fill="#000000" font-family="sans-serif" font-size="14" lengthAdjust="spacing" textLength="26.9883" x="51.51" y="321.5152">LLM</text></g><!--entity TTS--><g class="entity" data-entity="TTS" data-source-line="25" data-uid="ent0016" id="entity_TTS"><rect fill="#F1F1F1" height="36.4883" rx="2.5" ry="2.5" style="stroke:#181818;stroke-width:0.5;" width="45.2451" x="42.38" y="415.97"/><text fill="#000000" font-family="sans-serif" font-size="14" lengthAdjust="spacing" textLength="25.2451" x="52.38" y="439.5052">TTS</text></g><!--entity Queue--><g class="entity" data-entity="Queue" data-source-line="29" data-uid="ent0018" id="entity_Queue"><rect fill="#F1F1F1" height="36.4883" rx="2.5" ry="2.5" style="stroke:#181818;stroke-width:0.5;" width="63.8525" x="704.07" y="552.46"/><text fill="#000000" font-family="sans-serif" font-size="14" lengthAdjust="spacing" textLength="43.8525" x="714.07" y="575.9952">Queue</text></g><!--entity Worker--><g class="entity" data-entity="Worker" data-source-line="30" data-uid="ent0019" id="entity_Worker"><rect fill="#F1F1F1" height="36.4883" rx="2.5" ry="2.5" style="stroke:#181818;stroke-width:0.5;" width="68.0156" x="701.99" y="670.45"/><text fill="#000000" font-family="sans-serif" font-size="14" lengthAdjust="spacing" textLength="48.0156" x="711.99" y="693.9852">Worker</text></g><!--entity Usage Meter--><g class="entity" data-entity="Usage Meter" data-source-line="34" data-uid="ent0021" id="entity_Usage Meter"><rect fill="#F1F1F1" height="36.4883" rx="2.5" ry="2.5" style="stroke:#181818;stroke-width:0.5;" width="104.1504" x="418.92" y="809.43"/><text fill="#000000" font-family="sans-serif" font-size="14" lengthAdjust="spacing" textLength="84.1504" x="428.92" y="832.9652">Usage Meter</text></g><!--entity Billing Aggregator--><g class="entity" data-entity="Billing Aggregator" data-source-line="35" data-uid="ent0022" id="entity_Billing Aggregator"><rect fill="#F1F1F1" height="36.4883" rx="2.5" ry="2.5" style="stroke:#181818;stroke-width:0.5;" width="142.7598" x="418.62" y="929.42"/><text fill="#000000" font-family="sans-serif" font-size="14" lengthAdjust="spacing" textLength="122.7598" x="428.62" y="952.9552">Billing Aggregator</text></g><!--entity Client--><g class="entity" data-entity="Client" data-source-line="4" data-uid="ent0002" id="entity_Client"><ellipse cx="258.0024" cy="14" fill="#F1F1F1" rx="8" ry="8" style="stroke:#181818;stroke-width:0.5;"/><path d="M258.0024,22 L258.0024,49 M245.0024,30 L271.0024,30 M258.0024,49 L245.0024,64 M258.0024,49 L271.0024,64" fill="none" style="stroke:#181818;stroke-width:0.5;"/><text fill="#000000" font-family="sans-serif" font-size="14" lengthAdjust="spacing" textLength="39.5049" x="238.25" y="79.0352">Client</text></g><!--entity Tenant Config--><g class="entity" data-entity="Tenant Config" data-source-line="38" data-uid="ent0023" id="entity_Tenant Config"><path d="M325.84,303.48 C325.84,293.48 384.0026,293.48 384.0026,293.48 C384.0026,293.48 442.1652,293.48 442.1652,303.48 L442.1652,328.9683 C442.1652,338.9683 384.0026,338.9683 384.0026,338.9683 C384.0026,338.9683 325.84,338.9683 325.84,328.9683 L325.84,303.48" fill="#F1F1F1" style="stroke:#181818;stroke-width:0.5;"/><path d="M325.84,303.48 C325.84,313.48 384.0026,313.48 384.0026,313.48 C384.0026,313.48 442.1652,313.48 442.1652,303.48" fill="none" style="stroke:#181818;stroke-width:0.5;"/><text fill="#000000" font-family="sans-serif" font-size="14" lengthAdjust="spacing" textLength="96.3252" x="335.84" y="331.0152">Tenant Config</text></g><!--entity Idempotency Store--><g class="entity" data-entity="Idempotency Store" data-source-line="39" data-uid="ent0024" id="entity_Idempotency Store"><path d="M433.67,675.95 C433.67,665.95 507.005,665.95 507.005,665.95 C507.005,665.95 580.3399,665.95 580.3399,675.95 L580.3399,701.4383 C580.3399,711.4383 507.005,711.4383 507.005,711.4383 C507.005,711.4383 433.67,711.4383 433.67,701.4383 L433.67,675.95" fill="#F1F1F1" style="stroke:#181818;stroke-width:0.5;"/><path d="M433.67,675.95 C433.67,685.95 507.005,685.95 507.005,685.95 C507.005,685.95 580.3399,685.95 580.3399,675.95" fill="none" style="stroke:#181818;stroke-width:0.5;"/><text fill="#000000" font-family="sans-serif" font-size="14" lengthAdjust="spacing" textLength="126.6699" x="443.67" y="703.4852">Idempotency Store</text></g><!--entity Usage Ledger--><g class="entity" data-entity="Usage Ledger" data-source-line="40" data-uid="ent0025" id="entity_Usage Ledger"><path d="M596.07,934.92 C596.07,924.92 652.0007,924.92 652.0007,924.92 C652.0007,924.92 707.9313,924.92 707.9313,934.92 L707.9313,960.4083 C707.9313,970.4083 652.0007,970.4083 652.0007,970.4083 C652.0007,970.4083 596.07,970.4083 596.07,960.4083 L596.07,934.92" fill="#F1F1F1" style="stroke:#181818;stroke-width:0.5;"/><path d="M596.07,934.92 C596.07,944.92 652.0007,944.92 652.0007,944.92 C652.0007,944.92 707.9313,944.92 707.9313,934.92" fill="none" style="stroke:#181818;stroke-width:0.5;"/><text fill="#000000" font-family="sans-serif" font-size="14" lengthAdjust="spacing" textLength="91.8613" x="606.07" y="962.4552">Usage Ledger</text></g><!--link Client to Auth & Tenant Resolver--><g class="link" data-entity-1="Client" data-entity-2="Auth . Tenant Resolver" data-source-line="45" data-uid="lnk26" id="link_Client_Auth . Tenant Resolver"><path d="M278.08,54.75 C329,80.13 458.3598,144.594 523.0198,176.814" fill="none" id="Client-to-Auth &amp; Tenant Resolver" style="stroke:#181818;stroke-width:1;"/><polygon fill="#181818" points="528.39,179.49,522.1187,171.8959,523.9148,177.26,518.5507,179.0562,528.39,179.49" style="stroke:#181818;stroke-width:1;"/><text fill="#000000" font-family="sans-serif" font-size="13" lengthAdjust="spacing" textLength="115.54" x="421.18" y="125.5584">Request + API Key</text></g><!--link Auth & Tenant Resolver to Tenant Config--><g class="link" data-entity-1="Auth . Tenant Resolver" data-entity-2="Tenant Config" data-source-line="46" data-uid="lnk27" id="link_Auth . Tenant Resolver_Tenant Config"><path d="M516.32,216.89 C497.74,224.72 476.7,234.83 459,246.48 C438.79,259.79 422.9313,274.2564 408.6513,288.8164" fill="none" id="Auth &amp; Tenant Resolver-to-Tenant Config" style="stroke:#181818;stroke-width:1;"/><polygon fill="#181818" points="404.45,293.1,413.6076,289.4754,407.951,289.5303,407.8961,283.8737,404.45,293.1" style="stroke:#181818;stroke-width:1;"/><text fill="#000000" font-family="sans-serif" font-size="13" lengthAdjust="spacing" textLength="95.5576" x="460" y="260.0484">Resolve Tenant</text></g><!--link Auth & Tenant Resolver to Idempotency Guard--><g class="link" data-entity-1="Auth . Tenant Resolver" data-entity-2="Idempotency Guard" data-source-line="47" data-uid="lnk28" id="link_Auth . Tenant Resolver_Idempotency Guard"><path d="M564,216.85 C564,238.78 564,270 564,291.82" fill="none" id="Auth &amp; Tenant Resolver-to-Idempotency Guard" style="stroke:#181818;stroke-width:1;"/><polygon fill="#181818" points="564,297.82,568,288.82,564,292.82,560,288.82,564,297.82" style="stroke:#181818;stroke-width:1;"/><text fill="#000000" font-family="sans-serif" font-size="13" lengthAdjust="spacing" textLength="65.1968" x="565" y="260.0484">Check Key</text></g><!--link Idempotency Guard to Idempotency Store--><g class="link" data-entity-1="Idempotency Guard" data-entity-2="Idempotency Store" data-source-line="48" data-uid="lnk29" id="link_Idempotency Guard_Idempotency Store"><path d="M596.93,334.81 C609.38,343.32 622.17,354.81 629,368.97 C641.24,394.36 672.28,325.35 612,501.46 C590.25,565.02 550.2048,626.8874 526.5948,660.5574" fill="none" id="Idempotency Guard-to-Idempotency Store" style="stroke:#181818;stroke-width:1;"/><polygon fill="#181818" points="523.15,665.47,531.5922,660.3977,526.0207,661.3762,525.0421,655.8046,523.15,665.47" style="stroke:#181818;stroke-width:1;"/><text fill="#000000" font-family="sans-serif" font-size="13" lengthAdjust="spacing" textLength="46.7505" x="618.31" y="498.0284">Lookup</text></g><!--link Idempotency Guard to Request Router--><g class="link" data-entity-1="Idempotency Guard" data-entity-2="Request Router" data-source-line="50" data-uid="lnk30" id="link_Idempotency Guard_Request Router"><path d="M554.85,334.95 C550.22,344.73 544.97,357.23 542,368.97 C538.1,384.39 536.9053,396.4742 536.4153,409.5142" fill="none" id="Idempotency Guard-to-Request Router" style="stroke:#181818;stroke-width:1;"/><polygon fill="#181818" points="536.19,415.51,540.5251,406.6665,536.3778,410.5135,532.5308,406.3661,536.19,415.51" style="stroke:#181818;stroke-width:1;"/><text fill="#000000" font-family="sans-serif" font-size="13" lengthAdjust="spacing" textLength="81.4214" x="543" y="382.5384">New Request</text></g><!--link Request Router to Agent Logic--><g class="link" data-entity-1="Request Router" data-entity-2="Agent Logic" data-source-line="51" data-uid="lnk31" id="link_Request Router_Agent Logic"><path d="M499.5,452.93 C446.32,478.75 353.5172,523.8088 300.5372,549.5388" fill="none" id="Request Router-to-Agent Logic" style="stroke:#181818;stroke-width:1;"/><polygon fill="#181818" points="295.14,552.16,304.9832,551.8264,299.6376,549.9757,301.4883,544.6301,295.14,552.16" style="stroke:#181818;stroke-width:1;"/></g><!--link Agent Logic to Provider Orchestrator--><g class="link" data-entity-1="Agent Logic" data-entity-2="Provider Orchestrator" data-source-line="56" data-uid="lnk32" id="link_Agent Logic_Provider Orchestrator"><path d="M259,589.32 C259,611.24 259,642.46 259,664.29" fill="none" id="Agent Logic-to-Provider Orchestrator" style="stroke:#181818;stroke-width:1;"/><polygon fill="#181818" points="259,670.29,263,661.29,259,665.29,255,661.29,259,670.29" style="stroke:#181818;stroke-width:1;"/></g><!--link Provider Orchestrator to Primary Provider--><g class="link" data-entity-1="Provider Orchestrator" data-entity-2="Primary Provider" data-source-line="57" data-uid="lnk33" id="link_Provider Orchestrator_Primary Provider"><path d="M252.38,707.26 C246.17,722.1 235.77,743.3 222,758.43 C217.69,763.17 215.26,762.77 210,766.43 C189.83,780.47 172.1228,793.3242 155.6228,805.4642" fill="none" id="Provider Orchestrator-to-Primary Provider" style="stroke:#181818;stroke-width:1;"/><polygon fill="#181818" points="150.79,809.02,160.4098,806.9082,154.8174,806.0568,155.6687,800.4644,150.79,809.02" style="stroke:#181818;stroke-width:1;"/></g><!--link Primary Provider to Provider Orchestrator--><g class="link" data-entity-1="Primary Provider" data-entity-2="Provider Orchestrator" data-source-line="58" data-uid="lnk34" id="link_Primary Provider_Provider Orchestrator"><path d="M114.97,809.09 C103.99,790.66 91.52,761.62 106,741.43 C122.26,718.76 143.2116,707.4793 169.8216,700.2193" fill="none" id="Primary Provider-to-Provider Orchestrator" style="stroke:#181818;stroke-width:1;"/><polygon fill="#181818" points="175.61,698.64,165.8745,697.1499,170.7863,699.956,167.9802,704.8678,175.61,698.64" style="stroke:#181818;stroke-width:1;"/><text fill="#000000" font-family="sans-serif" font-size="13" lengthAdjust="spacing" textLength="106.2217" x="107" y="754.9984">Success / Failure</text></g><!--link Provider Orchestrator to Fallback Provider--><g class="link" data-entity-1="Provider Orchestrator" data-entity-2="Fallback Provider" data-source-line="59" data-uid="lnk35" id="link_Provider Orchestrator_Fallback Provider"><path d="M263.63,707.32 C270.55,733.62 281.9537,777.0474 288.8637,803.3174" fill="none" id="Provider Orchestrator-to-Fallback Provider" style="stroke:#181818;stroke-width:1;"/><polygon fill="#181818" points="290.39,809.12,291.969,799.3985,289.1181,804.2845,284.2321,801.4336,290.39,809.12" style="stroke:#181818;stroke-width:1;"/><text fill="#000000" font-family="sans-serif" font-size="13" lengthAdjust="spacing" textLength="64.5747" x="278" y="754.9984">On Failure</text></g><!--link Provider Orchestrator to Usage Meter--><g class="link" data-entity-1="Provider Orchestrator" data-entity-2="Usage Meter" data-source-line="64" data-uid="lnk36" id="link_Provider Orchestrator_Usage Meter"><path d="M292.28,707.3 C309.98,716.95 331.96,729.37 351,741.43 C385.53,763.33 418.9727,787.5597 442.7927,805.3497" fill="none" id="Provider Orchestrator-to-Usage Meter" style="stroke:#181818;stroke-width:1;"/><polygon fill="#181818" points="447.6,808.94,442.7827,800.3497,443.594,805.9481,437.9956,806.7594,447.6,808.94" style="stroke:#181818;stroke-width:1;"/><text fill="#000000" font-family="sans-serif" font-size="13" lengthAdjust="spacing" textLength="212.5068" x="375.56" y="754.9984">tokens, duration, model, provider</text></g><!--link Usage Meter to Usage Ledger--><g class="link" data-entity-1="Usage Meter" data-entity-2="Usage Ledger" data-source-line="65" data-uid="lnk37" id="link_Usage Meter_Usage Ledger"><path d="M523.32,841.37 C548.2,849.15 577.38,860.94 600,877.92 C616.64,890.41 627.3865,904.4956 636.6165,919.4356" fill="none" id="Usage Meter-to-Usage Ledger" style="stroke:#181818;stroke-width:1;"/><polygon fill="#181818" points="639.77,924.54,638.4426,914.781,637.1421,920.2863,631.6367,918.9857,639.77,924.54" style="stroke:#181818;stroke-width:1;"/><text fill="#000000" font-family="sans-serif" font-size="13" lengthAdjust="spacing" textLength="138.8232" x="618.17" y="891.4884">Append Usage Record</text></g><!--link Usage Meter to Billing Aggregator--><g class="link" data-entity-1="Usage Meter" data-entity-2="Billing Aggregator" data-source-line="66" data-uid="lnk38" id="link_Usage Meter_Billing Aggregator"><path d="M473.84,846.34 C477.45,868.71 482.6669,901.0962 486.2469,923.3462" fill="none" id="Usage Meter-to-Billing Aggregator" style="stroke:#181818;stroke-width:1;"/><polygon fill="#181818" points="487.2,929.27,489.7195,919.7489,486.4057,924.3335,481.8211,921.0197,487.2,929.27" style="stroke:#181818;stroke-width:1;"/><text fill="#000000" font-family="sans-serif" font-size="13" lengthAdjust="spacing" textLength="108.1387" x="482.64" y="891.4884">Emit Usage Event</text></g><!--link Agent Logic to STT--><g class="link" data-entity-1="Agent Logic" data-entity-2="STT" data-source-line="71" data-uid="lnk39" id="link_Agent Logic_STT"><path d="M242.43,552.14 C230.49,538.9 214.52,519.92 203,501.46 C186.48,474.97 101.613,282.6234 75.073,222.2034" fill="none" id="Agent Logic-to-STT" style="stroke:#181818;stroke-width:1;"/><polygon fill="#181818" points="72.66,216.71,72.6173,226.5588,74.6708,221.2878,79.9418,223.3414,72.66,216.71" style="stroke:#181818;stroke-width:1;"/><text fill="#000000" font-family="sans-serif" font-size="13" lengthAdjust="spacing" textLength="49.6006" x="148.46" y="382.5384">If Audio</text></g><!--link STT to LLM--><g class="link" data-entity-1="STT" data-entity-2="LLM" data-source-line="72" data-uid="lnk40" id="link_STT_LLM"><path d="M65,216.85 C65,238.78 65,270 65,291.82" fill="none" id="STT-to-LLM" style="stroke:#181818;stroke-width:1;"/><polygon fill="#181818" points="65,297.82,69,288.82,65,292.82,61,288.82,65,297.82" style="stroke:#181818;stroke-width:1;"/></g><!--link LLM to TTS--><g class="link" data-entity-1="LLM" data-entity-2="TTS" data-source-line="73" data-uid="lnk41" id="link_LLM_TTS"><path d="M65,334.84 C65,356.77 65,387.98 65,409.81" fill="none" id="LLM-to-TTS" style="stroke:#181818;stroke-width:1;"/><polygon fill="#181818" points="65,415.81,69,406.81,65,410.81,61,406.81,65,415.81" style="stroke:#181818;stroke-width:1;"/></g><!--link TTS to Agent Logic--><g class="link" data-entity-1="TTS" data-entity-2="Agent Logic" data-source-line="74" data-uid="lnk42" id="link_TTS_Agent Logic"><path d="M75,452.86 C83.95,467.41 98.24,487.81 115,501.46 C142.67,523.99 173.4345,538.9486 202.6945,550.4286" fill="none" id="TTS-to-Agent Logic" style="stroke:#181818;stroke-width:1;"/><polygon fill="#181818" points="208.28,552.62,201.3627,545.6092,203.6254,550.7938,198.4408,553.0565,208.28,552.62" style="stroke:#181818;stroke-width:1;"/></g><!--link Agent Logic to Idempotency Store--><g class="link" data-entity-1="Agent Logic" data-entity-2="Idempotency Store" data-source-line="79" data-uid="lnk43" id="link_Agent Logic_Idempotency Store"><path d="M296.94,589.44 C340.63,609.88 407.0147,640.9288 454.3047,663.0388" fill="none" id="Agent Logic-to-Idempotency Store" style="stroke:#181818;stroke-width:1;"/><polygon fill="#181818" points="459.74,665.58,453.2812,658.1447,455.2106,663.4623,449.8929,665.3917,459.74,665.58" style="stroke:#181818;stroke-width:1;"/><text fill="#000000" font-family="sans-serif" font-size="13" lengthAdjust="spacing" textLength="71.043" x="391.44" y="632.5184">Save Result</text></g><!--link Agent Logic to Client--><g class="link" data-entity-1="Agent Logic" data-entity-2="Client" data-source-line="80" data-uid="lnk44" id="link_Agent Logic_Client"><path d="M252.49,552.14 C243.67,526.72 229,478.03 229,435.21 C229,197.24 229,197.24 229,197.24 C229,157.49 237.0859,118.7179 245.2459,88.0779" fill="none" id="Agent Logic-to-Client" style="stroke:#181818;stroke-width:1;"/><polygon fill="#181818" points="246.79,82.28,240.6086,89.9475,245.5033,87.1116,248.3391,92.0063,246.79,82.28" style="stroke:#181818;stroke-width:1;"/><text fill="#000000" font-family="sans-serif" font-size="13" lengthAdjust="spacing" textLength="60.1948" x="230" y="321.2884">Response</text></g><!--link Request Router to Queue--><g class="link" data-entity-1="Request Router" data-entity-2="Queue" data-source-line="85" data-uid="lnk45" id="link_Request Router_Queue"><path d="M512.44,452.9 C497.14,466.55 482.08,485.71 494,501.46 C519.43,535.04 638.1219,555.9201 697.9219,564.5801" fill="none" id="Request Router-to-Queue" style="stroke:#181818;stroke-width:1;"/><polygon fill="#181818" points="703.86,565.44,695.5262,560.1914,698.9116,564.7234,694.3796,568.1088,703.86,565.44" style="stroke:#181818;stroke-width:1;"/><text fill="#000000" font-family="sans-serif" font-size="13" lengthAdjust="spacing" textLength="112.3916" x="495" y="498.0284">Long-running Job</text></g><!--link Queue to Worker--><g class="link" data-entity-1="Queue" data-entity-2="Worker" data-source-line="86" data-uid="lnk46" id="link_Queue_Worker"><path d="M736,589.32 C736,611.24 736,642.46 736,664.29" fill="none" id="Queue-to-Worker" style="stroke:#181818;stroke-width:1;"/><polygon fill="#181818" points="736,670.29,740,661.29,736,665.29,732,661.29,736,670.29" style="stroke:#181818;stroke-width:1;"/></g><!--link Worker to Agent Logic--><g class="link" data-entity-1="Worker" data-entity-2="Agent Logic" data-source-line="87" data-uid="lnk47" id="link_Worker_Agent Logic"><path d="M701.79,678.41 C651.39,664.84 554.17,638.99 471,618.95 C416.01,605.69 358.5454,593.0139 315.5254,583.7439" fill="none" id="Worker-to-Agent Logic" style="stroke:#181818;stroke-width:1;"/><polygon fill="#181818" points="309.66,582.48,317.6155,588.2861,314.5478,583.5332,319.3006,580.4656,309.66,582.48" style="stroke:#181818;stroke-width:1;"/></g><!--SRC=[dLLjRzCm4FxkNt7gXx69JNoF15Afjb7eQ5aAVFQSQshLjODVMaM8_uwTf25lRJGgHRLzzpndd-yvcnsN6TLq3qpjCoLHsjZc0a4ZirIc0ecfNSoM9kh8PGeRAWmIGfbL6cQ2UnWXDGGcqzKS7gd58yqdy9l0FtPlStOBLx16IVtq6OqI1zIJjjCyGJ-sA5aEZuxgf6D_nbyEZOShPmFuJpjy6fmMDFUcNlZIfbBEEfmhhGuyGGrBpRQUN5D_kXxr74v-fiUzqdnFTLvxT08yK25UADirx6to7uepX1NFK729NVfulMxD5ukdrdozZhkRDRbaC9SRJVrn7BDEzrY_ENJOMlcfz0vrX-eZ5oBS_1KyeS-u7_PE_ztG54jpv-0dy3HDDQPrMXDgwGirdhqgXfcI6vvE6ePc7SGUXqrZ6N21IHeYaZVm_kpF6-EGYrFTF0Xrl0megnhkxZwSBTcefdiBeUA_O4xE-PP4xND69tFbFGBkQoA2sHPzFHM1- -O-h4nXvCjVxLn6peCw-ehWAnvFfoLTQvMafh36BcD0Qrp9owXMX3Bc6ScUMJzXkYBjBrrYZo1sZA4ny0uUA1TUKvS3zcKVmLBMsB5KDMGLD7Izz1KXQ7upagnBEsegDGAhTYZDBIIkl8LRsAi4nIra5GLf0PeKbVOYc6OPogJQwpCofPCXr40ZYE1-pss5l3yKByb8HgesIRrMhfTPs38LDw-j7TzD8vXlOEeIheYV5QkXf_gl68T-wh__g6ulND_wV8lwH6KI3lpgmXuIRKmF8RV62Ji0AVjLLCSUtMJvE8mtma6r5wz6w2ColTDEod2fdzKBATOBZ-eLAVy6SlWN]--></g></svg>