<svg xmlns="http://www.w3.org/2000/svg" xmlns:xlink="http://www.w3.org/1999/xlink" contentStyleType="text/css" data-diagram-type="SEQUENCE" height="1265px" preserveAspectRatio="none" style="width:1073px;height:1265px;background:#FEFEFE;" version="1.1" viewBox="0 0 1073 1265" width="1073px" zoomAndPan="magnify"><title>Multi-Tenant Isolation - Simplified</title><defs/><g><rect fill="#FEFEFE" height="1265" style="stroke:none;stroke-width:1;" width="1073" x="0" y="0"/><text fill="#000000" font-family="Verdana" font-size="22" font-weight="bold" lengthAdjust="spacing" textLength="425.2832" x="322.4758" y="37.1182">Multi-Tenant Isolation - Simplified</text><g><title>Tenant A</title><rect fill="#000000" fill-opacity="0.00000" height="943.3774" width="8" x="40.5513" y="130.752"/><line style="stroke:#000000;stroke-width:1;stroke-dasharray:5,5;" x1="44" x2="44" y1="130.752" y2="1074.1294"/></g><g><title>Tenant B</title><rect fill="#000000" fill-opacity="0.00000" height="943.3774" width="8" x="119.6675" y="130.752"/><line style="stroke:#000000;stroke-width:1;stroke-dasharray:5,5;" x1="123.1025" x2="123.1025" y1="130.752" y2="1074.1294"/></g><g><title>API</title><rect fill="#000000" fill-opacity="0.00000" height="943.3774" width="8" x="340.8447" y="130.752"/><line style="stroke:#000000;stroke-width:1;stroke-dasharray:5,5;" x1="343.8921" x2="343.8921" y1="130.752" y2="1074.1294"/></g><g><title>Auth</title><rect fill="#000000" fill-opacity="0.00000" height="943.3774" width="8" x="471.917" y="130.752"/><line style="stroke:#000000;stroke-width:1;stroke-dasharray:5,5;" x1="475.5142" x2="475.5142" y1="130.752" y2="1074.1294"/></g><g><title>Database</title><rect fill="#000000" fill-opacity="0.00000" height="943.3774" width="8" x="787.1284" y="130.752"/><line style="stroke:#000000;stroke-width:1;stroke-dasharray:5,5;" x1="790.186" x2="790.186" y1="130.752" y2="1074.1294"/></g><g><title>Service</title><rect fill="#000000" fill-opacity="0.00000" height="943.3774" width="8" x="1014.4121" y="130.752"/><line style="stroke:#000000;stroke-width:1;stroke-dasharray:5,5;" x1="1017.5894" x2="1017.5894" y1="130.752" y2="1074.1294"/></g><g class="participant participant-head" data-participant="TA"><text fill="#000000" font-family="Verdana" font-size="14" lengthAdjust="spacing" textLength="63.1025" x="10" y="127.8125">Tenant A</text><ellipse cx="44.5513" cy="61.7373" fill="#FFFFFF" rx="8" ry="8" style="stroke:#000000;stroke-width:1;"/><path d="M44.5513,69.7373 L44.5513,96.7373 M31.5513,77.7373 L57.5513,77.7373 M44.5513,96.7373 L31.5513,111.7373 M44.5513,96.7373 L57.5513,111.7373" fill="none" style="stroke:#000000;stroke-width:1;"/></g><g class="participant participant-tail" data-participant="TA"><text fill="#000000" font-family="Verdana" font-size="14" lengthAdjust="spacing" textLength="63.1025" x="10" y="1087.2046">Tenant A</text><ellipse cx="44.5513" cy="1099.144" fill="#FFFFFF" rx="8" ry="8" style="stroke:#000000;stroke-width:1;"/><path d="M44.5513,1107.144 L44.5513,1134.144 M31.5513,1115.144 L57.5513,1115.144 M44.5513,1134.144 L31.5513,1149.144 M44.5513,1134.144 L57.5513,1149.144" fill="none" style="stroke:#000000;stroke-width:1;"/></g><g class="participant participant-head" data-participant="TB"><text fill="#000000" font-family="Verdana" font-size="14" lengthAdjust="spacing" textLength="63.1299" x="89.1025" y="127.8125">Tenant B</text><ellipse cx="123.6675" cy="61.7373" fill="#FFFFFF" rx="8" ry="8" style="stroke:#000000;stroke-width:1;"/><path d="M123.6675,69.7373 L123.6675,96.7373 M110.6675,77.7373 L136.6675,77.7373 M123.6675,96.7373 L110.6675,111.7373 M123.6675,96.7373 L136.6675,111.7373" fill="none" style="stroke:#000000;stroke-width:1;"/></g><g class="participant participant-tail" data-participant="TB"><text fill="#000000" font-family="Verdana" font-size="14" lengthAdjust="spacing" textLength="63.1299" x="89.1025" y="1087.2046">Tenant B</text><ellipse cx="123.6675" cy="1099.144" fill="#FFFFFF" rx="8" ry="8" style="stroke:#000000;stroke-width:1;"/><path d="M123.6675,1107.144 L123.6675,1134.144 M110.6675,1115.144 L136.6675,1115.144 M123.6675,1134.144 L110.6675,1149.144 M123.6675,1134.144 L136.6675,1149.144" fill="none" style="stroke:#000000;stroke-width:1;"/></g><g class="participant participant-head" data-participant="API"><rect fill="#FFFFFF" height="31.0146" rx="2.5" ry="2.5" style="stroke:#000000;stroke-width:1;" width="37.9053" x="325.8921" y="98.7373"/><text fill="#000000" font-family="Verdana" font-size="14" lengthAdjust="spacing" textLength="23.9053" x="332.8921" y="119.8125">API</text></g><g class="participant participant-tail" data-participant="API"><rect fill="#FFFFFF" height="31.0146" rx="2.5" ry="2.5" style="stroke:#000000;stroke-width:1;" width="37.9053" x="325.8921" y="1073.1294"/><text fill="#000000" font-family="Verdana" font-size="14" lengthAdjust="spacing" textLength="23.9053" x="332.8921" y="1094.2046">API</text></g><g class="participant participant-head" data-participant="Auth"><rect fill="#FFFFFF" height="31.0146" rx="2.5" ry="2.5" style="stroke:#000000;stroke-width:1;" width="46.8057" x="452.5142" y="98.7373"/><text fill="#000000" font-family="Verdana" font-size="14" lengthAdjust="spacing" textLength="32.8057" x="459.5142" y="119.8125">Auth</text></g><g class="participant participant-tail" data-participant="Auth"><rect fill="#FFFFFF" height="31.0146" rx="2.5" ry="2.5" style="stroke:#000000;stroke-width:1;" width="46.8057" x="452.5142" y="1073.1294"/><text fill="#000000" font-family="Verdana" font-size="14" lengthAdjust="spacing" textLength="32.8057" x="459.5142" y="1094.2046">Auth</text></g><g class="participant participant-head" data-participant="DB"><text fill="#000000" font-family="Verdana" font-size="14" lengthAdjust="spacing" textLength="65.8848" x="755.186" y="127.8125">Database</text><path d="M773.1284,77.7373 C773.1284,67.7373 791.1284,67.7373 791.1284,67.7373 C791.1284,67.7373 809.1284,67.7373 809.1284,77.7373 L809.1284,103.7373 C809.1284,113.7373 791.1284,113.7373 791.1284,113.7373 C791.1284,113.7373 773.1284,113.7373 773.1284,103.7373 L773.1284,77.7373" fill="#FFFFFF" style="stroke:#000000;stroke-width:1;"/><path d="M773.1284,77.7373 C773.1284,87.7373 791.1284,87.7373 791.1284,87.7373 C791.1284,87.7373 809.1284,87.7373 809.1284,77.7373" fill="none" style="stroke:#000000;stroke-width:1;"/></g><g class="participant participant-tail" data-participant="DB"><text fill="#000000" font-family="Verdana" font-size="14" lengthAdjust="spacing" textLength="65.8848" x="755.186" y="1087.2046">Database</text><path d="M773.1284,1100.144 C773.1284,1090.144 791.1284,1090.144 791.1284,1090.144 C791.1284,1090.144 809.1284,1090.144 809.1284,1100.144 L809.1284,1126.144 C809.1284,1136.144 791.1284,1136.144 791.1284,1136.144 C791.1284,1136.144 773.1284,1136.144 773.1284,1126.144 L773.1284,1100.144" fill="#FFFFFF" style="stroke:#000000;stroke-width:1;"/><path d="M773.1284,1100.144 C773.1284,1110.144 791.1284,1110.144 791.1284,1110.144 C791.1284,1110.144 809.1284,1110.144 809.1284,1100.144" fill="none" style="stroke:#000000;stroke-width:1;"/></g><g class="participant participant-head" data-participant="Svc"><rect fill="#FFFFFF" height="31.0146" rx="2.5" ry="2.5" style="stroke:#000000;stroke-width:1;" width="65.6455" x="985.5894" y="98.7373"/><text fill="#000000" font-family="Verdana" font-size="14" lengthAdjust="spacing" textLength="51.6455" x="992.5894" y="119.8125">Service</text></g><g class="participant participant-tail" data-participant="Svc"><rect fill="#FFFFFF" height="31.0146" rx="2.5" ry="2.5" style="stroke:#000000;stroke-width:1;" width="65.6455" x="985.5894" y="1073.1294"/><text fill="#000000" font-family="Verdana" font-size="14" lengthAdjust="spacing" textLength="51.6455" x="992.5894" y="1094.2046">Service</text></g><rect fill="#FFFFFF" height="3" style="stroke:#FFFFFF;stroke-width:1;" width="1061.2349" x="5" y="161.6516"/><line style="stroke:#000000;stroke-width:0.5;" x1="5" x2="1066.2349" y1="161.6516" y2="161.6516"/><line style="stroke:#000000;stroke-width:0.5;" x1="5" x2="1066.2349" y1="164.6516" y2="164.6516"/><rect fill="#FFFFFF" height="23.7993" style="stroke:#000000;stroke-width:1;" width="234.4668" x="418.384" y="150.752"/><text fill="#000000" font-family="Verdana" font-size="13" font-weight="bold" lengthAdjust="spacing" textLength="216.0234" x="424.384" y="167.8218">Tenant A Accesses Their Data</text><g class="message" data-participant-1="TA" data-participant-2="API"><polygon fill="#000000" points="332.8447,218.1499,342.8447,222.1499,332.8447,226.1499,336.8447,222.1499" style="stroke:#000000;stroke-width:1;"/><line style="stroke:#000000;stroke-width:1;" x1="44.5513" x2="338.8447" y1="222.1499" y2="222.1499"/><text fill="#000000" font-family="Verdana" font-size="13" lengthAdjust="spacing" textLength="80.5581" x="51.5513" y="201.6211">GET /agents</text><text fill="#000000" font-family="Verdana" font-size="13" lengthAdjust="spacing" textLength="177.252" x="51.5513" y="217.4204">X-API-Key: acme_key_123</text></g><g class="message" data-participant-1="API" data-participant-2="Auth"><polygon fill="#000000" points="463.917,247.9492,473.917,251.9492,463.917,255.9492,467.917,251.9492" style="stroke:#000000;stroke-width:1;"/><line style="stroke:#000000;stroke-width:1;" x1="344.8447" x2="469.917" y1="251.9492" y2="251.9492"/><text fill="#000000" font-family="Verdana" font-size="13" lengthAdjust="spacing" textLength="107.0723" x="351.8447" y="247.2197">Validate API key</text></g><g class="message" data-participant-1="Auth" data-participant-2="DB"><polygon fill="#000000" points="779.1284,293.5479,789.1284,297.5479,779.1284,301.5479,783.1284,297.5479" style="stroke:#000000;stroke-width:1;"/><line style="stroke:#000000;stroke-width:1;" x1="475.917" x2="785.1284" y1="297.5479" y2="297.5479"/><text fill="#000000" font-family="Verdana" font-size="13" lengthAdjust="spacing" textLength="96.4717" x="482.917" y="277.019">SELECT tenant</text><text fill="#000000" font-family="Verdana" font-size="13" lengthAdjust="spacing" textLength="291.2114" x="482.917" y="292.8184">WHERE apiKeyHash = hash(acme_key_123)</text></g><g class="message" data-participant-1="DB" data-participant-2="Auth"><polygon fill="#000000" points="486.917,323.3472,476.917,327.3472,486.917,331.3472,482.917,327.3472" style="stroke:#000000;stroke-width:1;"/><line style="stroke:#000000;stroke-width:1;stroke-dasharray:2,2;" x1="480.917" x2="790.1284" y1="327.3472" y2="327.3472"/><text fill="#000000" font-family="Verdana" font-size="13" lengthAdjust="spacing" textLength="165.1406" x="492.917" y="322.6177">Tenant A (id: acme_001)</text></g><g class="message" data-participant-1="Auth" data-participant-2="Auth"><line style="stroke:#000000;stroke-width:1;" x1="475.917" x2="517.917" y1="357.1465" y2="357.1465"/><line style="stroke:#000000;stroke-width:1;" x1="517.917" x2="517.917" y1="357.1465" y2="370.1465"/><line style="stroke:#000000;stroke-width:1;" x1="476.917" x2="517.917" y1="370.1465" y2="370.1465"/><polygon fill="#000000" points="486.917,366.1465,476.917,370.1465,486.917,374.1465,482.917,370.1465" style="stroke:#000000;stroke-width:1;"/><text fill="#000000" font-family="Verdana" font-size="13" lengthAdjust="spacing" textLength="223.939" x="482.917" y="352.417">Set request.tenantId = acme_001</text></g><g class="message" data-participant-1="API" data-participant-2="Svc"><polygon fill="#000000" points="1006.4121,395.9458,1016.4121,399.9458,1006.4121,403.9458,1010.4121,399.9458" style="stroke:#000000;stroke-width:1;"/><line style="stroke:#000000;stroke-width:1;" x1="344.8447" x2="1012.4121" y1="399.9458" y2="399.9458"/><text fill="#000000" font-family="Verdana" font-size="13" lengthAdjust="spacing" textLength="71.043" x="351.8447" y="395.2163">List agents</text></g><g class="message" data-participant-1="Svc" data-participant-2="DB"><polygon fill="#000000" points="802.1284,441.5444,792.1284,445.5444,802.1284,449.5444,798.1284,445.5444" style="stroke:#000000;stroke-width:1;"/><line style="stroke:#000000;stroke-width:1;" x1="796.1284" x2="1017.4121" y1="445.5444" y2="445.5444"/><text fill="#000000" font-family="Verdana" font-size="13" lengthAdjust="spacing" textLength="97.9951" x="808.1284" y="425.0156">SELECT agents</text><text fill="#000000" font-family="Verdana" font-size="13" lengthAdjust="spacing" textLength="203.2837" x="808.1284" y="440.8149">WHERE tenantId = 'acme_001'</text></g><g class="message" data-participant-1="DB" data-participant-2="Svc"><polygon fill="#000000" points="1006.4121,471.3438,1016.4121,475.3438,1006.4121,479.3438,1010.4121,475.3438" style="stroke:#000000;stroke-width:1;"/><line style="stroke:#000000;stroke-width:1;stroke-dasharray:2,2;" x1="791.1284" x2="1012.4121" y1="475.3438" y2="475.3438"/><text fill="#000000" font-family="Verdana" font-size="13" lengthAdjust="spacing" textLength="171.3423" x="798.1284" y="470.6143">Agent 1, Agent 2, Agent 3</text></g><g class="message" data-participant-1="Svc" data-participant-2="API"><polygon fill="#000000" points="355.8447,501.1431,345.8447,505.1431,355.8447,509.1431,351.8447,505.1431" style="stroke:#000000;stroke-width:1;"/><line style="stroke:#000000;stroke-width:1;stroke-dasharray:2,2;" x1="349.8447" x2="1017.4121" y1="505.1431" y2="505.1431"/><text fill="#000000" font-family="Verdana" font-size="13" lengthAdjust="spacing" textLength="130.5967" x="361.8447" y="500.4136">Agents for Tenant A</text></g><g class="message" data-participant-1="API" data-participant-2="TA"><polygon fill="#000000" points="55.5513,530.9424,45.5513,534.9424,55.5513,538.9424,51.5513,534.9424" style="stroke:#000000;stroke-width:1;"/><line style="stroke:#000000;stroke-width:1;stroke-dasharray:2,2;" x1="49.5513" x2="343.8447" y1="534.9424" y2="534.9424"/><text fill="#000000" font-family="Verdana" font-size="13" lengthAdjust="spacing" textLength="222.6123" x="61.5513" y="530.2129">200 OK [Agent1, Agent2, Agent3]</text></g><rect fill="#FFFFFF" height="3" style="stroke:#FFFFFF;stroke-width:1;" width="1061.2349" x="5" y="563.842"/><line style="stroke:#000000;stroke-width:0.5;" x1="5" x2="1066.2349" y1="563.842" y2="563.842"/><line style="stroke:#000000;stroke-width:0.5;" x1="5" x2="1066.2349" y1="566.842" y2="566.842"/><rect fill="#FFFFFF" height="23.7993" style="stroke:#000000;stroke-width:1;" width="317.3037" x="376.9656" y="552.9424"/><text fill="#000000" font-family="Verdana" font-size="13" font-weight="bold" lengthAdjust="spacing" textLength="298.8604" x="382.9656" y="570.0122">Tenant B Tries to Access Tenant A's Data</text><g class="message" data-participant-1="TB" data-participant-2="API"><polygon fill="#000000" points="332.8447,620.3403,342.8447,624.3403,332.8447,628.3403,336.8447,624.3403" style="stroke:#000000;stroke-width:1;"/><line style="stroke:#000000;stroke-width:1;" x1="123.6675" x2="338.8447" y1="624.3403" y2="624.3403"/><text fill="#000000" font-family="Verdana" font-size="13" lengthAdjust="spacing" textLength="197.1772" x="130.6675" y="603.8115">GET /agents/agent_acme_xyz</text><text fill="#000000" font-family="Verdana" font-size="13" lengthAdjust="spacing" textLength="170.1489" x="130.6675" y="619.6108">X-API-Key: tech_key_456</text></g><g class="message" data-participant-1="API" data-participant-2="Auth"><polygon fill="#000000" points="463.917,650.1396,473.917,654.1396,463.917,658.1396,467.917,654.1396" style="stroke:#000000;stroke-width:1;"/><line style="stroke:#000000;stroke-width:1;" x1="344.8447" x2="469.917" y1="654.1396" y2="654.1396"/><text fill="#000000" font-family="Verdana" font-size="13" lengthAdjust="spacing" textLength="107.0723" x="351.8447" y="649.4102">Validate API key</text></g><g class="message" data-participant-1="Auth" data-participant-2="DB"><polygon fill="#000000" points="779.1284,695.7383,789.1284,699.7383,779.1284,703.7383,783.1284,699.7383" style="stroke:#000000;stroke-width:1;"/><line style="stroke:#000000;stroke-width:1;" x1="475.917" x2="785.1284" y1="699.7383" y2="699.7383"/><text fill="#000000" font-family="Verdana" font-size="13" lengthAdjust="spacing" textLength="96.4717" x="482.917" y="679.2095">SELECT tenant</text><text fill="#000000" font-family="Verdana" font-size="13" lengthAdjust="spacing" textLength="284.1084" x="482.917" y="695.0088">WHERE apiKeyHash = hash(tech_key_456)</text></g><g class="message" data-participant-1="DB" data-participant-2="Auth"><polygon fill="#000000" points="486.917,725.5376,476.917,729.5376,486.917,733.5376,482.917,729.5376" style="stroke:#000000;stroke-width:1;"/><line style="stroke:#000000;stroke-width:1;stroke-dasharray:2,2;" x1="480.917" x2="790.1284" y1="729.5376" y2="729.5376"/><text fill="#000000" font-family="Verdana" font-size="13" lengthAdjust="spacing" textLength="158.063" x="492.917" y="724.8081">Tenant B (id: tech_002)</text></g><g class="message" data-participant-1="Auth" data-participant-2="Auth"><line style="stroke:#000000;stroke-width:1;" x1="475.917" x2="517.917" y1="759.3369" y2="759.3369"/><line style="stroke:#000000;stroke-width:1;" x1="517.917" x2="517.917" y1="759.3369" y2="772.3369"/><line style="stroke:#000000;stroke-width:1;" x1="476.917" x2="517.917" y1="772.3369" y2="772.3369"/><polygon fill="#000000" points="486.917,768.3369,476.917,772.3369,486.917,776.3369,482.917,772.3369" style="stroke:#000000;stroke-width:1;"/><text fill="#000000" font-family="Verdana" font-size="13" lengthAdjust="spacing" textLength="216.8359" x="482.917" y="754.6074">Set request.tenantId = tech_002</text></g><g class="message" data-participant-1="API" data-participant-2="Svc"><polygon fill="#000000" points="1006.4121,798.1362,1016.4121,802.1362,1006.4121,806.1362,1010.4121,802.1362" style="stroke:#000000;stroke-width:1;"/><line style="stroke:#000000;stroke-width:1;" x1="344.8447" x2="1012.4121" y1="802.1362" y2="802.1362"/><text fill="#000000" font-family="Verdana" font-size="13" lengthAdjust="spacing" textLength="138.2329" x="351.8447" y="797.4067">Get agent_acme_xyz</text></g><g class="message" data-participant-1="Svc" data-participant-2="DB"><polygon fill="#000000" points="802.1284,859.5342,792.1284,863.5342,802.1284,867.5342,798.1284,863.5342" style="stroke:#000000;stroke-width:1;"/><line style="stroke:#000000;stroke-width:1;" x1="796.1284" x2="1017.4121" y1="863.5342" y2="863.5342"/><text fill="#000000" font-family="Verdana" font-size="13" lengthAdjust="spacing" textLength="91.2222" x="808.1284" y="827.2061">SELECT agent</text><text fill="#000000" font-family="Verdana" font-size="13" lengthAdjust="spacing" textLength="201.8174" x="808.1284" y="843.0054">WHERE id = 'agent_acme_xyz'</text><text fill="#000000" font-family="Verdana" font-size="13" lengthAdjust="spacing" textLength="176.7061" x="808.1284" y="858.8047">AND tenantId = 'tech_002'</text></g><path d="M796,876.5342 L796,917.5342 L1035,917.5342 L1035,886.5342 L1025,876.5342 L796,876.5342" fill="#FFFFFF" style="stroke:#000000;stroke-width:1;"/><path d="M1025,876.5342 L1025,886.5342 L1035,886.5342 L1025,876.5342" fill="#FFFFFF" style="stroke:#000000;stroke-width:1;"/><text fill="#000000" font-family="Verdana" font-size="13" lengthAdjust="spacing" textLength="178.5278" x="802" y="894.604">Agent belongs to Tenant A,</text><text fill="#000000" font-family="Verdana" font-size="13" lengthAdjust="spacing" textLength="218.6704" x="802" y="910.4033">but query filters by Tenant B's ID</text><g class="message" data-participant-1="DB" data-participant-2="Svc"><polygon fill="#000000" points="1006.4121,940.9321,1016.4121,944.9321,1006.4121,948.9321,1010.4121,944.9321" style="stroke:#000000;stroke-width:1;"/><line style="stroke:#000000;stroke-width:1;stroke-dasharray:2,2;" x1="791.1284" x2="1012.4121" y1="944.9321" y2="944.9321"/><text fill="#000000" font-family="Verdana" font-size="13" lengthAdjust="spacing" textLength="65.9395" x="798.1284" y="940.2026">No results</text></g><g class="message" data-participant-1="Svc" data-participant-2="API"><polygon fill="#000000" points="355.8447,970.7314,345.8447,974.7314,355.8447,978.7314,351.8447,974.7314" style="stroke:#000000;stroke-width:1;"/><line style="stroke:#000000;stroke-width:1;stroke-dasharray:2,2;" x1="349.8447" x2="1017.4121" y1="974.7314" y2="974.7314"/><text fill="#000000" font-family="Verdana" font-size="13" lengthAdjust="spacing" textLength="67.2217" x="361.8447" y="970.002">Not Found</text></g><g class="message" data-participant-1="API" data-participant-2="TB"><polygon fill="#000000" points="134.6675,1000.5308,124.6675,1004.5308,134.6675,1008.5308,130.6675,1004.5308" style="stroke:#000000;stroke-width:1;"/><line style="stroke:#000000;stroke-width:1;stroke-dasharray:2,2;" x1="128.6675" x2="343.8447" y1="1004.5308" y2="1004.5308"/><text fill="#000000" font-family="Verdana" font-size="13" lengthAdjust="spacing" textLength="96.5859" x="140.6675" y="999.8013">404 Not Found</text></g><path d="M128,1017.5308 L128,1058.5308 L318,1058.5308 L318,1027.5308 L308,1017.5308 L128,1017.5308" fill="#FFFFFF" style="stroke:#000000;stroke-width:1;"/><path d="M308,1017.5308 L308,1027.5308 L318,1027.5308 L308,1017.5308" fill="#FFFFFF" style="stroke:#000000;stroke-width:1;"/><text fill="#000000" font-family="Verdana" font-size="13" lengthAdjust="spacing" textLength="147.0244" x="134" y="1035.6006">Returns 404 (not 403)</text><text fill="#000000" font-family="Verdana" font-size="13" lengthAdjust="spacing" textLength="169.876" x="134" y="1051.3999">to avoid leaking existence</text><rect fill="none" height="95.0732" rx="7.5" ry="7.5" style="stroke:#000000;stroke-width:1;" width="312.9648" x="378.635" y="1157.144"/><text fill="#000000" font-family="Verdana" font-size="14" font-weight="bold" lengthAdjust="spacing" textLength="158.04" x="383.635" y="1176.2192">Isolation Principles:</text><text fill="#000000" font-family="Verdana" font-size="14" lengthAdjust="spacing" textLength="269.9063" x="383.635" y="1193.2339">&#9989; Every API key maps to ONE tenant</text><text fill="#000000" font-family="Verdana" font-size="14" lengthAdjust="spacing" textLength="221.7949" x="383.635" y="1210.2485">&#9989; All queries filter by tenantId</text><text fill="#000000" font-family="Verdana" font-size="14" lengthAdjust="spacing" textLength="252.8232" x="383.635" y="1227.2632">&#9989; Cross-tenant access returns 404</text><text fill="#000000" font-family="Verdana" font-size="14" lengthAdjust="spacing" textLength="302.9648" x="383.635" y="1244.2778">&#9989; No admin bypass (except super-admin)</text><!--SRC=[jLHDRnen4BtxLqpfWGzbMqBI7f2ej0IIeAGa2gksKbD5PXd0oc9lROD2x_qN_NNz9HrxrsH1ZTHBnM7DpFFpctbZlx9BN27a6HUIcKSXSwxv2gOyVLnejPQpCvKf3Q_FX-x7c1KsG_Yupgo84fHSMXWPbN4hb8G89cALPs8kSCOOJotjh9Mek0RSG18VXFj5kC_eN2jIaRjWBRuT-JXz3n9hkomoj60pRlcK6uJQe5pvtE20RO9w8z8YDzcaZFLw45H1dAPe39A69GeDZWXwFSQI6A8FJa0NBeO9lEKBbDRSooyHnQ8ht7Q1fojyUCJjmt7dX34A-nqah0kVU2P87Je280YbAUxoWtuN9iFhuLa2rckubvylXtT3uBaWrajkbj239NqQLVucOuC-HBi3TleRObOgQRUFcy_d5B09Mj3uVOt6lYcE6ys8Fk1tggajNRWMna9H9sCKEP0REb38hR3L0rrz9zBpnMu371-LYqvOd9JieRy-Qc1EOn7AAeKH8ecxq6ctuUOAldfWu0jq9z-gXlOXqOBSjAfqTaTPDnLp-typj_Wy-6gUjZ_slBQOBhqNf-_U_m-lg_mlUDqllFR8Thlphru7_BxN5rXQlIltHSk3Q55ulRUfVY_ZyM1l6C9vD0nIKLUqM2mjgBcxbb1Em1Gp9HVUfM3F4IMdQmkaNszXBZABsi1qkwkU_1iD6CePEDhzIHihgjpGesGEHckiB9oxPwmoK5JUQVkqcjhNcJYTTsZNMXgFR52U5dG7mIdc6qMjo93JQxa0VA9RWpB5YhGC5-xFL5chLhIfrNf-8s-raFGmPMYwhHRbVl_w2SEDgxaS7rZnt7VcPXnkMGcBiyotnyrtqI3Ndz3x4dIcbJ5H4QHxxg-0VYwcH573-6mb917ad10DV4enjs3MEUh8fvg-eA8KzWS0]--></g></svg>