<svg xmlns="http://www.w3.org/2000/svg" xmlns:xlink="http://www.w3.org/1999/xlink" contentStyleType="text/css" data-diagram-type="SEQUENCE" height="731px" preserveAspectRatio="none" style="width:1329px;height:731px;background:#FEFEFE;" version="1.1" viewBox="0 0 1329 731" width="1329px" zoomAndPan="magnify"><title>Voice Processing - Simplified</title><defs/><g><rect fill="#FEFEFE" height="731" style="stroke:none;stroke-width:1;" width="1329" x="0" y="0"/><text fill="#000000" font-family="Verdana" font-size="22" font-weight="bold" lengthAdjust="spacing" textLength="358.1445" x="492.1602" y="37.1182">Voice Processing - Simplified</text><g><title>User</title><rect fill="#000000" fill-opacity="0.00000" height="518.3877" width="8" x="24.9277" y="130.752"/><line style="stroke:#000000;stroke-width:1;stroke-dasharray:5,5;" x1="28" x2="28" y1="130.752" y2="649.1396"/></g><g><title>Browser</title><rect fill="#000000" fill-opacity="0.00000" height="518.3877" width="8" x="201.4746" y="130.752"/><line style="stroke:#000000;stroke-width:1;stroke-dasharray:5,5;" x1="204.9072" x2="204.9072" y1="130.752" y2="649.1396"/></g><g><title>Voice API</title><rect fill="#000000" fill-opacity="0.00000" height="518.3877" width="8" x="422.271" y="130.752"/><line style="stroke:#000000;stroke-width:1;stroke-dasharray:5,5;" x1="426.0859" x2="426.0859" y1="130.752" y2="649.1396"/></g><g><title>STT</title><rect fill="#000000" fill-opacity="0.00000" height="518.3877" width="8" x="698.8696" y="130.752"/><line style="stroke:#000000;stroke-width:1;stroke-dasharray:5,5;" x1="702.2007" x2="702.2007" y1="130.752" y2="649.1396"/></g><g><title>Message Service</title><rect fill="#000000" fill-opacity="0.00000" height="518.3877" width="8" x="861.9209" y="130.752"/><line style="stroke:#000000;stroke-width:1;stroke-dasharray:5,5;" x1="865.5386" x2="865.5386" y1="130.752" y2="649.1396"/></g><g><title>AI</title><rect fill="#000000" fill-opacity="0.00000" height="518.3877" width="8" x="1139.3955" y="130.752"/><line style="stroke:#000000;stroke-width:1;stroke-dasharray:5,5;" x1="1142.6641" x2="1142.6641" y1="130.752" y2="649.1396"/></g><g><title>TTS</title><rect fill="#000000" fill-opacity="0.00000" height="518.3877" width="8" x="1251.7959" y="130.752"/><line style="stroke:#000000;stroke-width:1;stroke-dasharray:5,5;" x1="1255.127" x2="1255.127" y1="130.752" y2="649.1396"/></g><g class="participant participant-head" data-participant="User"><text fill="#000000" font-family="Verdana" font-size="14" lengthAdjust="spacing" textLength="31.8555" x="10" y="127.8125">User</text><ellipse cx="28.9277" cy="61.7373" fill="#FFFFFF" rx="8" ry="8" style="stroke:#000000;stroke-width:1;"/><path d="M28.9277,69.7373 L28.9277,96.7373 M15.9277,77.7373 L41.9277,77.7373 M28.9277,96.7373 L15.9277,111.7373 M28.9277,96.7373 L41.9277,111.7373" fill="none" style="stroke:#000000;stroke-width:1;"/></g><g class="participant participant-tail" data-participant="User"><text fill="#000000" font-family="Verdana" font-size="14" lengthAdjust="spacing" textLength="31.8555" x="10" y="662.2148">User</text><ellipse cx="28.9277" cy="674.1543" fill="#FFFFFF" rx="8" ry="8" style="stroke:#000000;stroke-width:1;"/><path d="M28.9277,682.1543 L28.9277,709.1543 M15.9277,690.1543 L41.9277,690.1543 M28.9277,709.1543 L15.9277,724.1543 M28.9277,709.1543 L41.9277,724.1543" fill="none" style="stroke:#000000;stroke-width:1;"/></g><g class="participant participant-head" data-participant="BR"><rect fill="#FFFFFF" height="31.0146" rx="2.5" ry="2.5" style="stroke:#000000;stroke-width:1;" width="71.1348" x="169.9072" y="98.7373"/><text fill="#000000" font-family="Verdana" font-size="14" lengthAdjust="spacing" textLength="57.1348" x="176.9072" y="119.8125">Browser</text></g><g class="participant participant-tail" data-participant="BR"><rect fill="#FFFFFF" height="31.0146" rx="2.5" ry="2.5" style="stroke:#000000;stroke-width:1;" width="71.1348" x="169.9072" y="648.1396"/><text fill="#000000" font-family="Verdana" font-size="14" lengthAdjust="spacing" textLength="57.1348" x="176.9072" y="669.2148">Browser</text></g><g class="participant participant-head" data-participant="API"><rect fill="#FFFFFF" height="31.0146" rx="2.5" ry="2.5" style="stroke:#000000;stroke-width:1;" width="80.3701" x="386.0859" y="98.7373"/><text fill="#000000" font-family="Verdana" font-size="14" lengthAdjust="spacing" textLength="66.3701" x="393.0859" y="119.8125">Voice API</text></g><g class="participant participant-tail" data-participant="API"><rect fill="#FFFFFF" height="31.0146" rx="2.5" ry="2.5" style="stroke:#000000;stroke-width:1;" width="80.3701" x="386.0859" y="648.1396"/><text fill="#000000" font-family="Verdana" font-size="14" lengthAdjust="spacing" textLength="66.3701" x="393.0859" y="669.2148">Voice API</text></g><g class="participant participant-head" data-participant="STT"><rect fill="#FFFFFF" height="48.0293" rx="2.5" ry="2.5" style="stroke:#000000;stroke-width:1;" width="135.3379" x="635.2007" y="81.7227"/><text fill="#000000" font-family="Verdana" font-size="14" lengthAdjust="spacing" textLength="26.8242" x="689.4575" y="102.7979">STT</text><text fill="#000000" font-family="Verdana" font-size="14" lengthAdjust="spacing" textLength="121.3379" x="642.2007" y="119.8125">(Speech-to-Text)</text></g><g class="participant participant-tail" data-participant="STT"><rect fill="#FFFFFF" height="48.0293" rx="2.5" ry="2.5" style="stroke:#000000;stroke-width:1;" width="135.3379" x="635.2007" y="648.1396"/><text fill="#000000" font-family="Verdana" font-size="14" lengthAdjust="spacing" textLength="26.8242" x="689.4575" y="669.2148">STT</text><text fill="#000000" font-family="Verdana" font-size="14" lengthAdjust="spacing" textLength="121.3379" x="642.2007" y="686.2295">(Speech-to-Text)</text></g><g class="participant participant-head" data-participant="MS"><rect fill="#FFFFFF" height="31.0146" rx="2.5" ry="2.5" style="stroke:#000000;stroke-width:1;" width="130.7646" x="800.5386" y="98.7373"/><text fill="#000000" font-family="Verdana" font-size="14" lengthAdjust="spacing" textLength="116.7646" x="807.5386" y="119.8125">Message Service</text></g><g class="participant participant-tail" data-participant="MS"><rect fill="#FFFFFF" height="31.0146" rx="2.5" ry="2.5" style="stroke:#000000;stroke-width:1;" width="130.7646" x="800.5386" y="648.1396"/><text fill="#000000" font-family="Verdana" font-size="14" lengthAdjust="spacing" textLength="116.7646" x="807.5386" y="669.2148">Message Service</text></g><g class="participant participant-head" data-participant="AI"><rect fill="#FFFFFF" height="31.0146" rx="2.5" ry="2.5" style="stroke:#000000;stroke-width:1;" width="29.4629" x="1128.6641" y="98.7373"/><text fill="#000000" font-family="Verdana" font-size="14" lengthAdjust="spacing" textLength="15.4629" x="1135.6641" y="119.8125">AI</text></g><g class="participant participant-tail" data-participant="AI"><rect fill="#FFFFFF" height="31.0146" rx="2.5" ry="2.5" style="stroke:#000000;stroke-width:1;" width="29.4629" x="1128.6641" y="648.1396"/><text fill="#000000" font-family="Verdana" font-size="14" lengthAdjust="spacing" textLength="15.4629" x="1135.6641" y="669.2148">AI</text></g><g class="participant participant-head" data-participant="TTS"><rect fill="#FFFFFF" height="48.0293" rx="2.5" ry="2.5" style="stroke:#000000;stroke-width:1;" width="135.3379" x="1188.127" y="81.7227"/><text fill="#000000" font-family="Verdana" font-size="14" lengthAdjust="spacing" textLength="26.8242" x="1242.3838" y="102.7979">TTS</text><text fill="#000000" font-family="Verdana" font-size="14" lengthAdjust="spacing" textLength="121.3379" x="1195.127" y="119.8125">(Text-to-Speech)</text></g><g class="participant participant-tail" data-participant="TTS"><rect fill="#FFFFFF" height="48.0293" rx="2.5" ry="2.5" style="stroke:#000000;stroke-width:1;" width="135.3379" x="1188.127" y="648.1396"/><text fill="#000000" font-family="Verdana" font-size="14" lengthAdjust="spacing" textLength="26.8242" x="1242.3838" y="669.2148">TTS</text><text fill="#000000" font-family="Verdana" font-size="14" lengthAdjust="spacing" textLength="121.3379" x="1195.127" y="686.2295">(Text-to-Speech)</text></g><g class="message" data-participant-1="User" data-participant-2="BR"><polygon fill="#000000" points="193.4746,158.5513,203.4746,162.5513,193.4746,166.5513,197.4746,162.5513" style="stroke:#000000;stroke-width:1;"/><line style="stroke:#000000;stroke-width:1;" x1="28.9277" x2="199.4746" y1="162.5513" y2="162.5513"/><text fill="#000000" font-family="Verdana" font-size="13" lengthAdjust="spacing" textLength="150.7886" x="35.9277" y="157.8218">Speak into microphone</text></g><g class="message" data-participant-1="BR" data-participant-2="BR"><line style="stroke:#000000;stroke-width:1;" x1="205.4746" x2="247.4746" y1="192.3506" y2="192.3506"/><line style="stroke:#000000;stroke-width:1;" x1="247.4746" x2="247.4746" y1="192.3506" y2="205.3506"/><line style="stroke:#000000;stroke-width:1;" x1="206.4746" x2="247.4746" y1="205.3506" y2="205.3506"/><polygon fill="#000000" points="216.4746,201.3506,206.4746,205.3506,216.4746,209.3506,212.4746,205.3506" style="stroke:#000000;stroke-width:1;"/><text fill="#000000" font-family="Verdana" font-size="13" lengthAdjust="spacing" textLength="85.2554" x="212.4746" y="187.6211">Record audio</text></g><g class="message" data-participant-1="BR" data-participant-2="API"><polygon fill="#000000" points="414.271,231.1499,424.271,235.1499,414.271,239.1499,418.271,235.1499" style="stroke:#000000;stroke-width:1;"/><line style="stroke:#000000;stroke-width:1;" x1="205.4746" x2="420.271" y1="235.1499" y2="235.1499"/><text fill="#000000" font-family="Verdana" font-size="13" lengthAdjust="spacing" textLength="109.1606" x="212.4746" y="230.4204">Upload audio file</text></g><g class="message" data-participant-1="API" data-participant-2="STT"><polygon fill="#000000" points="690.8696,260.9492,700.8696,264.9492,690.8696,268.9492,694.8696,264.9492" style="stroke:#000000;stroke-width:1;"/><line style="stroke:#000000;stroke-width:1;" x1="426.271" x2="696.8696" y1="264.9492" y2="264.9492"/><text fill="#000000" font-family="Verdana" font-size="13" lengthAdjust="spacing" textLength="149.0684" x="433.271" y="260.2197">Convert speech to text</text></g><g class="message" data-participant-1="STT" data-participant-2="API"><polygon fill="#000000" points="437.271,290.7485,427.271,294.7485,437.271,298.7485,433.271,294.7485" style="stroke:#000000;stroke-width:1;"/><line style="stroke:#000000;stroke-width:1;stroke-dasharray:2,2;" x1="431.271" x2="701.8696" y1="294.7485" y2="294.7485"/><text fill="#000000" font-family="Verdana" font-size="13" lengthAdjust="spacing" textLength="252.5986" x="443.271" y="290.019">Transcript: "What is my order status?"</text></g><g class="message" data-participant-1="API" data-participant-2="MS"><polygon fill="#000000" points="853.9209,320.5479,863.9209,324.5479,853.9209,328.5479,857.9209,324.5479" style="stroke:#000000;stroke-width:1;"/><line style="stroke:#000000;stroke-width:1;" x1="426.271" x2="859.9209" y1="324.5479" y2="324.5479"/><text fill="#000000" font-family="Verdana" font-size="13" lengthAdjust="spacing" textLength="180.9019" x="433.271" y="319.8184">Process as normal message</text></g><g class="message" data-participant-1="MS" data-participant-2="AI"><polygon fill="#000000" points="1131.3955,350.3472,1141.3955,354.3472,1131.3955,358.3472,1135.3955,354.3472" style="stroke:#000000;stroke-width:1;"/><line style="stroke:#000000;stroke-width:1;" x1="865.9209" x2="1137.3955" y1="354.3472" y2="354.3472"/><text fill="#000000" font-family="Verdana" font-size="13" lengthAdjust="spacing" textLength="95.1133" x="872.9209" y="349.6177">Send message</text></g><g class="message" data-participant-1="AI" data-participant-2="MS"><polygon fill="#000000" points="876.9209,380.1465,866.9209,384.1465,876.9209,388.1465,872.9209,384.1465" style="stroke:#000000;stroke-width:1;"/><line style="stroke:#000000;stroke-width:1;stroke-dasharray:2,2;" x1="870.9209" x2="1142.3955" y1="384.1465" y2="384.1465"/><text fill="#000000" font-family="Verdana" font-size="13" lengthAdjust="spacing" textLength="253.4746" x="882.9209" y="379.417">AI response: "Your order is shipped..."</text></g><g class="message" data-participant-1="API" data-participant-2="TTS"><polygon fill="#000000" points="1243.7959,409.9458,1253.7959,413.9458,1243.7959,417.9458,1247.7959,413.9458" style="stroke:#000000;stroke-width:1;"/><line style="stroke:#000000;stroke-width:1;" x1="426.271" x2="1249.7959" y1="413.9458" y2="413.9458"/><text fill="#000000" font-family="Verdana" font-size="13" lengthAdjust="spacing" textLength="149.0684" x="433.271" y="409.2163">Convert text to speech</text></g><g class="message" data-participant-1="TTS" data-participant-2="API"><polygon fill="#000000" points="437.271,439.7451,427.271,443.7451,437.271,447.7451,433.271,443.7451" style="stroke:#000000;stroke-width:1;"/><line style="stroke:#000000;stroke-width:1;stroke-dasharray:2,2;" x1="431.271" x2="1254.7959" y1="443.7451" y2="443.7451"/><text fill="#000000" font-family="Verdana" font-size="13" lengthAdjust="spacing" textLength="104.127" x="443.271" y="439.0156">Audio file (MP3)</text></g><g class="message" data-participant-1="API" data-participant-2="BR"><polygon fill="#000000" points="216.4746,469.5444,206.4746,473.5444,216.4746,477.5444,212.4746,473.5444" style="stroke:#000000;stroke-width:1;"/><line style="stroke:#000000;stroke-width:1;stroke-dasharray:2,2;" x1="210.4746" x2="425.271" y1="473.5444" y2="473.5444"/><text fill="#000000" font-family="Verdana" font-size="13" lengthAdjust="spacing" textLength="196.7964" x="222.4746" y="468.8149">Return transcript + audio URL</text></g><g class="message" data-participant-1="BR" data-participant-2="BR"><line style="stroke:#000000;stroke-width:1;" x1="205.4746" x2="247.4746" y1="503.3438" y2="503.3438"/><line style="stroke:#000000;stroke-width:1;" x1="247.4746" x2="247.4746" y1="503.3438" y2="516.3438"/><line style="stroke:#000000;stroke-width:1;" x1="206.4746" x2="247.4746" y1="516.3438" y2="516.3438"/><polygon fill="#000000" points="216.4746,512.3438,206.4746,516.3438,216.4746,520.3438,212.4746,516.3438" style="stroke:#000000;stroke-width:1;"/><text fill="#000000" font-family="Verdana" font-size="13" lengthAdjust="spacing" textLength="67.0693" x="212.4746" y="498.6143">Play audio</text></g><g class="message" data-participant-1="BR" data-participant-2="User"><polygon fill="#000000" points="39.9277,584.6414,29.9277,588.6414,39.9277,592.6414,35.9277,588.6414" style="stroke:#000000;stroke-width:1;"/><line style="stroke:#000000;stroke-width:1;stroke-dasharray:2,2;" x1="33.9277" x2="204.4746" y1="588.6414" y2="588.6414"/><text fill="#000000" font-family="Verdana" font-size="13" lengthAdjust="spacing" textLength="152.5469" x="45.9277" y="583.9119">User hears AI response</text></g><path d="M210,529.3438 L210,633.3438 L425,633.3438 L425,539.3438 L415,529.3438 L210,529.3438" fill="#FFFFFF" style="stroke:#000000;stroke-width:1;"/><path d="M415,529.3438 L415,539.3438 L425,539.3438 L415,529.3438" fill="#FFFFFF" style="stroke:#000000;stroke-width:1;"/><text fill="#000000" font-family="Verdana" font-size="13" font-weight="bold" lengthAdjust="spacing" textLength="107.7261" x="216" y="547.4136">Voice Pipeline:</text><text fill="#000000" font-family="Verdana" font-size="13" lengthAdjust="spacing" textLength="109.3511" x="216" y="563.2129">1. Capture audio</text><text fill="#000000" font-family="Verdana" font-size="13" lengthAdjust="spacing" textLength="127.2007" x="216" y="579.0122">2. STT &#8594; transcript</text><text fill="#000000" font-family="Verdana" font-size="13" lengthAdjust="spacing" textLength="178.4644" x="216" y="594.8115">3. Process as text message</text><text fill="#000000" font-family="Verdana" font-size="13" lengthAdjust="spacing" textLength="163.5728" x="216" y="610.6108">4. TTS &#8594; audio response</text><text fill="#000000" font-family="Verdana" font-size="13" lengthAdjust="spacing" textLength="194.4985" x="216" y="626.4102">5. Return both text and audio</text><!--SRC=[NLBBZjCm5DtxAmvbCrFKI32moGBKLY2DHAIgIGSXiV4aTnghYMtPxi3y01_09_8bNEVL54Lggdjypyjv5Mfg2RQHIWj_KjfA9riyol9qTEQigwrfZCFhBv_Z8qHGeI4y65KITiwKvBtIHwoGgzOswabH9OGi0-ySF3d1T46LoaeTiDWuyvE72qYFpVuQwodNk_iEvVSrd1V53tsJMwAoNWMpAkXNkEsECd9zD6DFyaZ8oJqpPtSeow_Fh0UP_rIA8cULo1qrUhLUXH4XOYAiFhBt50pA4vGE1gqgdR6rqIJ4PZyUs5DfN0LvhfGPvnmhnS4sHWu0dbJ3MpoFC4T9iJNwcLo0xzJ1_87z2CQm6YaA9xKldR8XnU9RBGEKH_i25cI7FiXmzfyM4s-Mf-DbnIpQk5OsQFkUH9PtrfWs9rrDu_LzfnTt-QyZRutsn7hVpTaDIgpgQsKjLKcINFIuh4kEw3wcwFC8nYuvrbC7kCbsTxS3mzHWE3kDC8N5cw6rm_xhlEfT8r_cHVCuNbNQ_Q8cwVmyWn3Q189Jnpe8OBaSFcTbgL6QqkMIfsyJRALb0pGm0- -IU4Fu-_lFp1FFxv9vkrtUiKJWVHBhw9PwxvCBu4CoPdmqeUutfHw_cNWPqQZu1m00]--></g></svg>