<svg xmlns="http://www.w3.org/2000/svg" xmlns:xlink="http://www.w3.org/1999/xlink" contentStyleType="text/css" data-diagram-type="SEQUENCE" height="1043px" preserveAspectRatio="none" style="width:743px;height:1043px;background:#FEFEFE;" version="1.1" viewBox="0 0 743 1043" width="743px" zoomAndPan="magnify"><title>Async Job Processing - Simplified</title><defs/><g><rect fill="#FEFEFE" height="1043" style="stroke:none;stroke-width:1;" width="743" x="0" y="0"/><text fill="#000000" font-family="Verdana" font-size="22" font-weight="bold" lengthAdjust="spacing" textLength="414.4551" x="171.0764" y="37.1182">Async Job Processing - Simplified</text><rect fill="#FFFFFF" height="63.3979" style="stroke:#000000;stroke-width:1;" width="581.8433" x="15" y="619.5083"/><g><title>Client</title><rect fill="#000000" fill-opacity="0.00000" height="214.1938" width="8" x="44.0874" y="130.752"/><line style="stroke:#000000;stroke-width:1;stroke-dasharray:5,5;" x1="48" x2="48" y1="130.752" y2="344.9458"/></g><line style="stroke:#000000;stroke-width:1;stroke-dasharray:1,4;" x1="48" x2="48" y1="344.9458" y2="386.3145"/><g><title>Client</title><rect fill="#000000" fill-opacity="0.00000" height="303.5918" width="8" x="44.0874" y="386.3145"/><line style="stroke:#000000;stroke-width:1;stroke-dasharray:5,5;" x1="48" x2="48" y1="386.3145" y2="689.9063"/></g><line style="stroke:#000000;stroke-width:1;stroke-dasharray:1,4;" x1="48" x2="48" y1="689.9063" y2="731.2749"/><g><title>Client</title><rect fill="#000000" fill-opacity="0.00000" height="229.9932" width="8" x="44.0874" y="731.2749"/><line style="stroke:#000000;stroke-width:1;stroke-dasharray:5,5;" x1="48" x2="48" y1="731.2749" y2="961.2681"/></g><g><title>API</title><rect fill="#000000" fill-opacity="0.00000" height="214.1938" width="8" x="221.0659" y="130.752"/><line style="stroke:#000000;stroke-width:1;stroke-dasharray:5,5;" x1="224.1133" x2="224.1133" y1="130.752" y2="344.9458"/></g><line style="stroke:#000000;stroke-width:1;stroke-dasharray:1,4;" x1="224.1133" x2="224.1133" y1="344.9458" y2="386.3145"/><g><title>API</title><rect fill="#000000" fill-opacity="0.00000" height="303.5918" width="8" x="221.0659" y="386.3145"/><line style="stroke:#000000;stroke-width:1;stroke-dasharray:5,5;" x1="224.1133" x2="224.1133" y1="386.3145" y2="689.9063"/></g><line style="stroke:#000000;stroke-width:1;stroke-dasharray:1,4;" x1="224.1133" x2="224.1133" y1="689.9063" y2="731.2749"/><g><title>API</title><rect fill="#000000" fill-opacity="0.00000" height="229.9932" width="8" x="221.0659" y="731.2749"/><line style="stroke:#000000;stroke-width:1;stroke-dasharray:5,5;" x1="224.1133" x2="224.1133" y1="731.2749" y2="961.2681"/></g><g><title>Database</title><rect fill="#000000" fill-opacity="0.00000" height="214.1938" width="8" x="368.2485" y="130.752"/><line style="stroke:#000000;stroke-width:1;stroke-dasharray:5,5;" x1="371.3062" x2="371.3062" y1="130.752" y2="344.9458"/></g><line style="stroke:#000000;stroke-width:1;stroke-dasharray:1,4;" x1="371.3062" x2="371.3062" y1="344.9458" y2="386.3145"/><g><title>Database</title><rect fill="#000000" fill-opacity="0.00000" height="303.5918" width="8" x="368.2485" y="386.3145"/><line style="stroke:#000000;stroke-width:1;stroke-dasharray:5,5;" x1="371.3062" x2="371.3062" y1="386.3145" y2="689.9063"/></g><line style="stroke:#000000;stroke-width:1;stroke-dasharray:1,4;" x1="371.3062" x2="371.3062" y1="689.9063" y2="731.2749"/><g><title>Database</title><rect fill="#000000" fill-opacity="0.00000" height="229.9932" width="8" x="368.2485" y="731.2749"/><line style="stroke:#000000;stroke-width:1;stroke-dasharray:5,5;" x1="371.3062" x2="371.3062" y1="731.2749" y2="961.2681"/></g><g><title>Job Worker</title><rect fill="#000000" fill-opacity="0.00000" height="214.1938" width="8" x="526.1333" y="130.752"/><line style="stroke:#000000;stroke-width:1;stroke-dasharray:5,5;" x1="529.4233" x2="529.4233" y1="130.752" y2="344.9458"/></g><line style="stroke:#000000;stroke-width:1;stroke-dasharray:1,4;" x1="529.4233" x2="529.4233" y1="344.9458" y2="386.3145"/><g><title>Job Worker</title><rect fill="#000000" fill-opacity="0.00000" height="303.5918" width="8" x="526.1333" y="386.3145"/><line style="stroke:#000000;stroke-width:1;stroke-dasharray:5,5;" x1="529.4233" x2="529.4233" y1="386.3145" y2="689.9063"/></g><line style="stroke:#000000;stroke-width:1;stroke-dasharray:1,4;" x1="529.4233" x2="529.4233" y1="689.9063" y2="731.2749"/><g><title>Job Worker</title><rect fill="#000000" fill-opacity="0.00000" height="229.9932" width="8" x="526.1333" y="731.2749"/><line style="stroke:#000000;stroke-width:1;stroke-dasharray:5,5;" x1="529.4233" x2="529.4233" y1="731.2749" y2="961.2681"/></g><g><title>Message Service</title><rect fill="#000000" fill-opacity="0.00000" height="214.1938" width="8" x="668.2256" y="130.752"/><line style="stroke:#000000;stroke-width:1;stroke-dasharray:5,5;" x1="671.8433" x2="671.8433" y1="130.752" y2="344.9458"/></g><line style="stroke:#000000;stroke-width:1;stroke-dasharray:1,4;" x1="671.8433" x2="671.8433" y1="344.9458" y2="386.3145"/><g><title>Message Service</title><rect fill="#000000" fill-opacity="0.00000" height="303.5918" width="8" x="668.2256" y="386.3145"/><line style="stroke:#000000;stroke-width:1;stroke-dasharray:5,5;" x1="671.8433" x2="671.8433" y1="386.3145" y2="689.9063"/></g><line style="stroke:#000000;stroke-width:1;stroke-dasharray:1,4;" x1="671.8433" x2="671.8433" y1="689.9063" y2="731.2749"/><g><title>Message Service</title><rect fill="#000000" fill-opacity="0.00000" height="229.9932" width="8" x="668.2256" y="731.2749"/><line style="stroke:#000000;stroke-width:1;stroke-dasharray:5,5;" x1="671.8433" x2="671.8433" y1="731.2749" y2="961.2681"/></g><g class="participant participant-head" data-participant="Client"><text fill="#000000" font-family="Verdana" font-size="14" lengthAdjust="spacing" textLength="40.1748" x="25" y="127.8125">Client</text><ellipse cx="48.0874" cy="61.7373" fill="#FFFFFF" rx="8" ry="8" style="stroke:#000000;stroke-width:1;"/><path d="M48.0874,69.7373 L48.0874,96.7373 M35.0874,77.7373 L61.0874,77.7373 M48.0874,96.7373 L35.0874,111.7373 M48.0874,96.7373 L61.0874,111.7373" fill="none" style="stroke:#000000;stroke-width:1;"/></g><g class="participant participant-tail" data-participant="Client"><text fill="#000000" font-family="Verdana" font-size="14" lengthAdjust="spacing" textLength="40.1748" x="25" y="974.3433">Client</text><ellipse cx="48.0874" cy="986.2827" fill="#FFFFFF" rx="8" ry="8" style="stroke:#000000;stroke-width:1;"/><path d="M48.0874,994.2827 L48.0874,1021.2827 M35.0874,1002.2827 L61.0874,1002.2827 M48.0874,1021.2827 L35.0874,1036.2827 M48.0874,1021.2827 L61.0874,1036.2827" fill="none" style="stroke:#000000;stroke-width:1;"/></g><g class="participant participant-head" data-participant="API"><rect fill="#FFFFFF" height="31.0146" rx="2.5" ry="2.5" style="stroke:#000000;stroke-width:1;" width="37.9053" x="206.1133" y="98.7373"/><text fill="#000000" font-family="Verdana" font-size="14" lengthAdjust="spacing" textLength="23.9053" x="213.1133" y="119.8125">API</text></g><g class="participant participant-tail" data-participant="API"><rect fill="#FFFFFF" height="31.0146" rx="2.5" ry="2.5" style="stroke:#000000;stroke-width:1;" width="37.9053" x="206.1133" y="960.2681"/><text fill="#000000" font-family="Verdana" font-size="14" lengthAdjust="spacing" textLength="23.9053" x="213.1133" y="981.3433">API</text></g><g class="participant participant-head" data-participant="DB"><text fill="#000000" font-family="Verdana" font-size="14" lengthAdjust="spacing" textLength="65.8848" x="336.3062" y="127.8125">Database</text><path d="M354.2485,77.7373 C354.2485,67.7373 372.2485,67.7373 372.2485,67.7373 C372.2485,67.7373 390.2485,67.7373 390.2485,77.7373 L390.2485,103.7373 C390.2485,113.7373 372.2485,113.7373 372.2485,113.7373 C372.2485,113.7373 354.2485,113.7373 354.2485,103.7373 L354.2485,77.7373" fill="#FFFFFF" style="stroke:#000000;stroke-width:1;"/><path d="M354.2485,77.7373 C354.2485,87.7373 372.2485,87.7373 372.2485,87.7373 C372.2485,87.7373 390.2485,87.7373 390.2485,77.7373" fill="none" style="stroke:#000000;stroke-width:1;"/></g><g class="participant participant-tail" data-participant="DB"><text fill="#000000" font-family="Verdana" font-size="14" lengthAdjust="spacing" textLength="65.8848" x="336.3062" y="974.3433">Database</text><path d="M354.2485,987.2827 C354.2485,977.2827 372.2485,977.2827 372.2485,977.2827 C372.2485,977.2827 390.2485,977.2827 390.2485,987.2827 L390.2485,1013.2827 C390.2485,1023.2827 372.2485,1023.2827 372.2485,1023.2827 C372.2485,1023.2827 354.2485,1023.2827 354.2485,1013.2827 L354.2485,987.2827" fill="#FFFFFF" style="stroke:#000000;stroke-width:1;"/><path d="M354.2485,987.2827 C354.2485,997.2827 372.2485,997.2827 372.2485,997.2827 C372.2485,997.2827 390.2485,997.2827 390.2485,987.2827" fill="none" style="stroke:#000000;stroke-width:1;"/></g><g class="participant participant-head" data-participant="Worker"><rect fill="#FFFFFF" height="31.0146" rx="2.5" ry="2.5" style="stroke:#000000;stroke-width:1;" width="93.4199" x="483.4233" y="98.7373"/><text fill="#000000" font-family="Verdana" font-size="14" lengthAdjust="spacing" textLength="79.4199" x="490.4233" y="119.8125">Job Worker</text></g><g class="participant participant-tail" data-participant="Worker"><rect fill="#FFFFFF" height="31.0146" rx="2.5" ry="2.5" style="stroke:#000000;stroke-width:1;" width="93.4199" x="483.4233" y="960.2681"/><text fill="#000000" font-family="Verdana" font-size="14" lengthAdjust="spacing" textLength="79.4199" x="490.4233" y="981.3433">Job Worker</text></g><g class="participant participant-head" data-participant="MS"><rect fill="#FFFFFF" height="31.0146" rx="2.5" ry="2.5" style="stroke:#000000;stroke-width:1;" width="130.7646" x="606.8433" y="98.7373"/><text fill="#000000" font-family="Verdana" font-size="14" lengthAdjust="spacing" textLength="116.7646" x="613.8433" y="119.8125">Message Service</text></g><g class="participant participant-tail" data-participant="MS"><rect fill="#FFFFFF" height="31.0146" rx="2.5" ry="2.5" style="stroke:#000000;stroke-width:1;" width="130.7646" x="606.8433" y="960.2681"/><text fill="#000000" font-family="Verdana" font-size="14" lengthAdjust="spacing" textLength="116.7646" x="613.8433" y="981.3433">Message Service</text></g><g class="message" data-participant-1="Client" data-participant-2="API"><polygon fill="#000000" points="213.0659,158.5513,223.0659,162.5513,213.0659,166.5513,217.0659,162.5513" style="stroke:#000000;stroke-width:1;"/><line style="stroke:#000000;stroke-width:1;" x1="48.0874" x2="219.0659" y1="162.5513" y2="162.5513"/><text fill="#000000" font-family="Verdana" font-size="13" lengthAdjust="spacing" textLength="152.9785" x="55.0874" y="157.8218">POST /messages/async</text></g><g class="message" data-participant-1="API" data-participant-2="DB"><polygon fill="#000000" points="360.2485,204.1499,370.2485,208.1499,360.2485,212.1499,364.2485,208.1499" style="stroke:#000000;stroke-width:1;"/><line style="stroke:#000000;stroke-width:1;" x1="225.0659" x2="366.2485" y1="208.1499" y2="208.1499"/><text fill="#000000" font-family="Verdana" font-size="13" lengthAdjust="spacing" textLength="68.0786" x="232.0659" y="187.6211">Create job</text><text fill="#000000" font-family="Verdana" font-size="13" lengthAdjust="spacing" textLength="123.1826" x="232.0659" y="203.4204">(status: PENDING)</text></g><g class="message" data-participant-1="API" data-participant-2="Client"><polygon fill="#000000" points="59.0874,249.7485,49.0874,253.7485,59.0874,257.7485,55.0874,253.7485" style="stroke:#000000;stroke-width:1;"/><line style="stroke:#000000;stroke-width:1;stroke-dasharray:2,2;" x1="53.0874" x2="224.0659" y1="253.7485" y2="253.7485"/><text fill="#000000" font-family="Verdana" font-size="13" lengthAdjust="spacing" textLength="88.6069" x="65.0874" y="233.2197">202 Accepted</text><text fill="#000000" font-family="Verdana" font-size="13" lengthAdjust="spacing" textLength="101.5942" x="65.0874" y="249.019">{jobId, pollUrl}</text></g><path d="M53,266.7485 L53,339.7485 L219,339.7485 L219,276.7485 L209,266.7485 L53,266.7485" fill="#FFFFFF" style="stroke:#000000;stroke-width:1;"/><path d="M209,266.7485 L209,276.7485 L219,276.7485 L209,266.7485" fill="#FFFFFF" style="stroke:#000000;stroke-width:1;"/><text fill="#000000" font-family="Verdana" font-size="13" lengthAdjust="spacing" textLength="70.5859" x="59" y="284.8184">Client can:</text><text fill="#000000" font-family="Verdana" font-size="13" lengthAdjust="spacing" textLength="101.499" x="59" y="300.6177">&#8226; Poll for status</text><text fill="#000000" font-family="Verdana" font-size="13" lengthAdjust="spacing" textLength="126.3438" x="59" y="316.417">&#8226; Wait for webhook</text><text fill="#000000" font-family="Verdana" font-size="13" lengthAdjust="spacing" textLength="145.1836" x="59" y="332.2163">&#8226; Continue other work</text><text fill="#000000" font-family="Verdana" font-size="11" lengthAdjust="spacing" textLength="127.8374" x="296.2378" y="370.0049">Background Processing</text><g class="message" data-participant-1="Worker" data-participant-2="DB"><polygon fill="#000000" points="383.2485,404.1138,373.2485,408.1138,383.2485,412.1138,379.2485,408.1138" style="stroke:#000000;stroke-width:1;"/><line style="stroke:#000000;stroke-width:1;" x1="377.2485" x2="529.1333" y1="408.1138" y2="408.1138"/><text fill="#000000" font-family="Verdana" font-size="13" lengthAdjust="spacing" textLength="133.8848" x="389.2485" y="403.3843">Poll for pending jobs</text></g><g class="message" data-participant-1="DB" data-participant-2="Worker"><polygon fill="#000000" points="518.1333,433.9131,528.1333,437.9131,518.1333,441.9131,522.1333,437.9131" style="stroke:#000000;stroke-width:1;"/><line style="stroke:#000000;stroke-width:1;stroke-dasharray:2,2;" x1="372.2485" x2="524.1333" y1="437.9131" y2="437.9131"/><text fill="#000000" font-family="Verdana" font-size="13" lengthAdjust="spacing" textLength="63.4829" x="379.2485" y="433.1836">Job found</text></g><g class="message" data-participant-1="Worker" data-participant-2="DB"><polygon fill="#000000" points="383.2485,479.5117,373.2485,483.5117,383.2485,487.5117,379.2485,483.5117" style="stroke:#000000;stroke-width:1;"/><line style="stroke:#000000;stroke-width:1;" x1="377.2485" x2="529.1333" y1="483.5117" y2="483.5117"/><text fill="#000000" font-family="Verdana" font-size="13" lengthAdjust="spacing" textLength="96.6875" x="389.2485" y="462.9829">Update status:</text><text fill="#000000" font-family="Verdana" font-size="13" lengthAdjust="spacing" textLength="87.458" x="389.2485" y="478.7822">PROCESSING</text></g><g class="message" data-participant-1="Worker" data-participant-2="MS"><polygon fill="#000000" points="660.2256,509.311,670.2256,513.311,660.2256,517.311,664.2256,513.311" style="stroke:#000000;stroke-width:1;"/><line style="stroke:#000000;stroke-width:1;" x1="530.1333" x2="666.2256" y1="513.311" y2="513.311"/><text fill="#000000" font-family="Verdana" font-size="13" lengthAdjust="spacing" textLength="111.4966" x="537.1333" y="508.5815">Process message</text></g><g class="message" data-participant-1="MS" data-participant-2="Worker"><polygon fill="#000000" points="541.1333,539.1104,531.1333,543.1104,541.1333,547.1104,537.1333,543.1104" style="stroke:#000000;stroke-width:1;"/><line style="stroke:#000000;stroke-width:1;stroke-dasharray:2,2;" x1="535.1333" x2="671.2256" y1="543.1104" y2="543.1104"/><text fill="#000000" font-family="Verdana" font-size="13" lengthAdjust="spacing" textLength="40.4727" x="547.1333" y="538.3809">Result</text></g><g class="message" data-participant-1="Worker" data-participant-2="DB"><polygon fill="#000000" points="383.2485,600.5083,373.2485,604.5083,383.2485,608.5083,379.2485,604.5083" style="stroke:#000000;stroke-width:1;"/><line style="stroke:#000000;stroke-width:1;" x1="377.2485" x2="529.1333" y1="604.5083" y2="604.5083"/><text fill="#000000" font-family="Verdana" font-size="13" lengthAdjust="spacing" textLength="96.6875" x="389.2485" y="568.1802">Update status:</text><text fill="#000000" font-family="Verdana" font-size="13" lengthAdjust="spacing" textLength="79.8091" x="389.2485" y="583.9795">COMPLETED</text><text fill="#000000" font-family="Verdana" font-size="13" lengthAdjust="spacing" textLength="82.4497" x="389.2485" y="599.7788">Store output</text></g><path d="M15,619.5083 L79.0493,619.5083 L79.0493,627.3076 L69.0493,637.3076 L15,637.3076 L15,619.5083" fill="#FFFFFF" style="stroke:#000000;stroke-width:1;"/><rect fill="none" height="63.3979" style="stroke:#000000;stroke-width:1;" width="581.8433" x="15" y="619.5083"/><text fill="#000000" font-family="Verdana" font-size="13" font-weight="bold" lengthAdjust="spacing" textLength="19.0493" x="30" y="633.5781">alt</text><text fill="#000000" font-family="Verdana" font-size="11" font-weight="bold" lengthAdjust="spacing" textLength="139.7021" x="94.0493" y="632.5674">[Webhook configured]</text><g class="message" data-participant-1="Worker" data-participant-2="Client"><polygon fill="#000000" points="59.0874,670.9063,49.0874,674.9063,59.0874,678.9063,55.0874,674.9063" style="stroke:#000000;stroke-width:1;"/><line style="stroke:#000000;stroke-width:1;" x1="53.0874" x2="529.1333" y1="674.9063" y2="674.9063"/><text fill="#000000" font-family="Verdana" font-size="13" lengthAdjust="spacing" textLength="97.7222" x="65.0874" y="654.3774">POST webhook</text><text fill="#000000" font-family="Verdana" font-size="13" lengthAdjust="spacing" textLength="151.6519" x="65.0874" y="670.1768">{jobId, status, output}</text></g><text fill="#000000" font-family="Verdana" font-size="11" lengthAdjust="spacing" textLength="113.9531" x="303.1799" y="714.9653">Client Checks Status</text><g class="message" data-participant-1="Client" data-participant-2="API"><polygon fill="#000000" points="213.0659,749.0742,223.0659,753.0742,213.0659,757.0742,217.0659,753.0742" style="stroke:#000000;stroke-width:1;"/><line style="stroke:#000000;stroke-width:1;" x1="48.0874" x2="219.0659" y1="753.0742" y2="753.0742"/><text fill="#000000" font-family="Verdana" font-size="13" lengthAdjust="spacing" textLength="87.4961" x="55.0874" y="748.3447">GET /jobs/:id</text></g><g class="message" data-participant-1="API" data-participant-2="DB"><polygon fill="#000000" points="360.2485,778.8735,370.2485,782.8735,360.2485,786.8735,364.2485,782.8735" style="stroke:#000000;stroke-width:1;"/><line style="stroke:#000000;stroke-width:1;" x1="225.0659" x2="366.2485" y1="782.8735" y2="782.8735"/><text fill="#000000" font-family="Verdana" font-size="13" lengthAdjust="spacing" textLength="92.3774" x="232.0659" y="778.144">Get job status</text></g><g class="message" data-participant-1="DB" data-participant-2="API"><polygon fill="#000000" points="236.0659,808.6729,226.0659,812.6729,236.0659,816.6729,232.0659,812.6729" style="stroke:#000000;stroke-width:1;"/><line style="stroke:#000000;stroke-width:1;stroke-dasharray:2,2;" x1="230.0659" x2="371.2485" y1="812.6729" y2="812.6729"/><text fill="#000000" font-family="Verdana" font-size="13" lengthAdjust="spacing" textLength="69.1514" x="242.0659" y="807.9434">Job details</text></g><g class="message" data-participant-1="API" data-participant-2="Client"><polygon fill="#000000" points="59.0874,896.7698,49.0874,900.7698,59.0874,904.7698,55.0874,900.7698" style="stroke:#000000;stroke-width:1;"/><line style="stroke:#000000;stroke-width:1;stroke-dasharray:2,2;" x1="53.0874" x2="224.0659" y1="900.7698" y2="900.7698"/><text fill="#000000" font-family="Verdana" font-size="13" lengthAdjust="spacing" textLength="143.0889" x="65.0874" y="880.241">{status: COMPLETED,</text><text fill="#000000" font-family="Verdana" font-size="13" lengthAdjust="spacing" textLength="92.1045" x="65.0874" y="896.0403">output: {...}}</text></g><path d="M230,825.6729 L230,945.6729 L576,945.6729 L576,835.6729 L566,825.6729 L230,825.6729" fill="#FFFFFF" style="stroke:#000000;stroke-width:1;"/><path d="M566,825.6729 L566,835.6729 L576,835.6729 L566,825.6729" fill="#FFFFFF" style="stroke:#000000;stroke-width:1;"/><text fill="#000000" font-family="Verdana" font-size="13" font-weight="bold" lengthAdjust="spacing" textLength="81.0151" x="236" y="843.7427">Job States:</text><text fill="#000000" font-family="Verdana" font-size="13" lengthAdjust="spacing" textLength="325.8315" x="236" y="859.542">PENDING &#8594; PROCESSING &#8594; COMPLETED/FAILED</text><text fill="#000000" font-family="Verdana" font-size="13" lengthAdjust="spacing" textLength="4.5703" x="236" y="875.3413">&#160;</text><text fill="#000000" font-family="Verdana" font-size="13" font-weight="bold" lengthAdjust="spacing" textLength="108.1895" x="236" y="891.1406">Client Options:</text><text fill="#000000" font-family="Verdana" font-size="13" lengthAdjust="spacing" textLength="159.3706" x="236" y="906.9399">&#8226; Poll every 2-5 seconds</text><text fill="#000000" font-family="Verdana" font-size="13" lengthAdjust="spacing" textLength="181.3779" x="236" y="922.7393">&#8226; Receive webhook callback</text><text fill="#000000" font-family="Verdana" font-size="13" lengthAdjust="spacing" textLength="119.2598" x="236" y="938.5386">&#8226; Hybrid approach</text><!--SRC=[XLH1Rjim4Bpp5TlqqXfsN0JeHOS2jgIaBkBOi1BauWjDhMtMCYcGL8eW2D1J7z0dz6bvIPSYPSVfeV9157TtTdTcu7TkYtk4kk9ICRkJgkQ6xs75nMvZTAFAL5VQmFlBtFyOSz9L22Fxg0HyqokO6otGMgasC812xkjAhYMMZ77Xg2wj92h72DH98Mkk79oDvfCpu1RepKhk-8fRXBCidjfGDZujyPtkjTcXQSFXU9eofIdu1g50yo15W9aMZ8K9OF35zqjWFYjkORWFoNR8_IACKSXdPEC4KeFS8NpNgwNwO1rtZQMg_2QRt5nzZ9cK6c0JkFXq0ICXi7POBjKJbKtAFjIwgkvCzSoOqWHcv6RhGAyxEY0UG72LqDVBppymfn9O4sMXPxozvzArjpzmjTLw5wzJhPnK3O8c-IX8V31K9VXkZ9sVdyFu8E1hYIZ2M62ls_VGjoO0dqChMCQoSRjco4rQgTSUxMtvNLrwkY9HIpLVpDAyA8YirvdJ8kd6WCWzOzFYfCK2RLEv_-6di-dyEh_DiwKgo634GEFgXifuvU0-a0H2gxNSD8Py2FGS4JlLMXT4Ie-gXIRz2Fdi6GraHhNIBOgTXQ9D2ro-STTLJkRo10uJMPxOwWgTPxPJj-EthVBabkYuhEo_1dlgF7ZOlBzKOK8AqX3F9owZXNiz3-YdH9lqUdGJxGilltx3KQ3syu0wl1nDhlECjG1nhLdjf5OHv61IV43p21U3ps2Hc2uxhovGe7p0ZbSoTrNv_v4O_lguCh84NjT6Sx4z-lKl]--></g></svg>