<svg xmlns="http://www.w3.org/2000/svg" xmlns:xlink="http://www.w3.org/1999/xlink" contentStyleType="text/css" data-diagram-type="SEQUENCE" height="1049px" preserveAspectRatio="none" style="width:1082px;height:1049px;background:#FEFEFE;" version="1.1" viewBox="0 0 1082 1049" width="1082px" zoomAndPan="magnify"><title>Retry &amp; Fallback Strategy - Simplified</title><defs/><g><rect fill="#FEFEFE" height="1049" style="stroke:none;stroke-width:1;" width="1082" x="0" y="0"/><text fill="#000000" font-family="Verdana" font-size="22" font-weight="bold" lengthAdjust="spacing" textLength="465.3193" x="314.6233" y="37.1182">Retry &amp; Fallback Strategy - Simplified</text><rect fill="#FFFFFF" height="602.4937" style="stroke:#000000;stroke-width:1;" width="635.7192" x="15" y="148.5659"/><rect fill="#FFFFFF" height="540.895" style="stroke:#000000;stroke-width:1;" width="615.7192" x="25" y="203.1646"/><rect fill="#FFFFFF" height="463.4971" style="stroke:none;stroke-width:1;" width="615.7192" x="25" y="280.5625"/><rect fill="#FFFFFF" height="331.7305" style="stroke:#000000;stroke-width:1;" width="595.7192" x="35" y="405.3291"/><rect fill="#FFFFFF" height="254.3325" style="stroke:none;stroke-width:1;" width="595.7192" x="35" y="482.7271"/><rect fill="#FFFFFF" height="122.5659" style="stroke:#000000;stroke-width:1;" width="575.7192" x="45" y="607.4937"/><rect fill="#FFFFFF" height="45.168" style="stroke:none;stroke-width:1;" width="575.7192" x="45" y="684.8916"/><rect fill="#FFFFFF" height="213.9639" style="stroke:#000000;stroke-width:1;" width="709.2817" x="35" y="765.0596"/><rect fill="#FFFFFF" height="152.3652" style="stroke:#000000;stroke-width:1;" width="689.2817" x="45" y="819.6582"/><rect fill="#FFFFFF" height="74.9673" style="stroke:none;stroke-width:1;" width="689.2817" x="45" y="897.0562"/><g><title>Message Service</title><rect fill="#000000" fill-opacity="0.00000" height="894.2568" width="8" x="126.3823" y="101.7666"/><line style="stroke:#000000;stroke-width:1;stroke-dasharray:5,5;" x1="130" x2="130" y1="101.7666" y2="996.0234"/></g><g><title>Orchestrator</title><rect fill="#000000" fill-opacity="0.00000" height="894.2568" width="8" x="319.9155" y="101.7666"/><line style="stroke:#000000;stroke-width:1;stroke-dasharray:5,5;" x1="323.5811" x2="323.5811" y1="101.7666" y2="996.0234"/></g><g><title>VendorA</title><rect fill="#000000" fill-opacity="0.00000" height="894.2568" width="8" x="556.0898" y="101.7666"/><line style="stroke:#000000;stroke-width:1;stroke-dasharray:5,5;" x1="559.4604" x2="559.4604" y1="101.7666" y2="996.0234"/></g><g><title>VendorB</title><rect fill="#000000" fill-opacity="0.00000" height="894.2568" width="8" x="668.5005" y="101.7666"/><line style="stroke:#000000;stroke-width:1;stroke-dasharray:5,5;" x1="671.7192" x2="671.7192" y1="101.7666" y2="996.0234"/></g><g class="participant participant-head" data-participant="MS"><rect fill="#FFFFFF" height="31.0146" rx="2.5" ry="2.5" style="stroke:#000000;stroke-width:1;" width="130.7646" x="65" y="69.752"/><text fill="#000000" font-family="Verdana" font-size="14" lengthAdjust="spacing" textLength="116.7646" x="72" y="90.8271">Message Service</text></g><g class="participant participant-tail" data-participant="MS"><rect fill="#FFFFFF" height="31.0146" rx="2.5" ry="2.5" style="stroke:#000000;stroke-width:1;" width="130.7646" x="65" y="995.0234"/><text fill="#000000" font-family="Verdana" font-size="14" lengthAdjust="spacing" textLength="116.7646" x="72" y="1016.0986">Message Service</text></g><g class="participant participant-head" data-participant="Orch"><rect fill="#FFFFFF" height="31.0146" rx="2.5" ry="2.5" style="stroke:#000000;stroke-width:1;" width="102.6689" x="272.5811" y="69.752"/><text fill="#000000" font-family="Verdana" font-size="14" lengthAdjust="spacing" textLength="88.6689" x="279.5811" y="90.8271">Orchestrator</text></g><g class="participant participant-tail" data-participant="Orch"><rect fill="#FFFFFF" height="31.0146" rx="2.5" ry="2.5" style="stroke:#000000;stroke-width:1;" width="102.6689" x="272.5811" y="995.0234"/><text fill="#000000" font-family="Verdana" font-size="14" lengthAdjust="spacing" textLength="88.6689" x="279.5811" y="1016.0986">Orchestrator</text></g><g class="participant participant-head" data-participant="VA"><rect fill="#FFFFFF" height="48.0293" rx="2.5" ry="2.5" style="stroke:#000000;stroke-width:1;" width="81.2588" x="519.4604" y="52.7373"/><text fill="#000000" font-family="Verdana" font-size="14" lengthAdjust="spacing" textLength="59.5342" x="530.3228" y="73.8125">VendorA</text><text fill="#000000" font-family="Verdana" font-size="14" lengthAdjust="spacing" textLength="67.2588" x="526.4604" y="90.8271">(Primary)</text></g><g class="participant participant-tail" data-participant="VA"><rect fill="#FFFFFF" height="48.0293" rx="2.5" ry="2.5" style="stroke:#000000;stroke-width:1;" width="81.2588" x="519.4604" y="995.0234"/><text fill="#000000" font-family="Verdana" font-size="14" lengthAdjust="spacing" textLength="59.5342" x="530.3228" y="1016.0986">VendorA</text><text fill="#000000" font-family="Verdana" font-size="14" lengthAdjust="spacing" textLength="67.2588" x="526.4604" y="1033.1133">(Primary)</text></g><g class="participant participant-head" data-participant="VB"><rect fill="#FFFFFF" height="48.0293" rx="2.5" ry="2.5" style="stroke:#000000;stroke-width:1;" width="83.5625" x="630.7192" y="52.7373"/><text fill="#000000" font-family="Verdana" font-size="14" lengthAdjust="spacing" textLength="59.5615" x="642.7197" y="73.8125">VendorB</text><text fill="#000000" font-family="Verdana" font-size="14" lengthAdjust="spacing" textLength="69.5625" x="637.7192" y="90.8271">(Fallback)</text></g><g class="participant participant-tail" data-participant="VB"><rect fill="#FFFFFF" height="48.0293" rx="2.5" ry="2.5" style="stroke:#000000;stroke-width:1;" width="83.5625" x="630.7192" y="995.0234"/><text fill="#000000" font-family="Verdana" font-size="14" lengthAdjust="spacing" textLength="59.5615" x="642.7197" y="1016.0986">VendorB</text><text fill="#000000" font-family="Verdana" font-size="14" lengthAdjust="spacing" textLength="69.5625" x="637.7192" y="1033.1133">(Fallback)</text></g><g class="message" data-participant-1="MS" data-participant-2="Orch"><polygon fill="#000000" points="311.9155,129.5659,321.9155,133.5659,311.9155,137.5659,315.9155,133.5659" style="stroke:#000000;stroke-width:1;"/><line style="stroke:#000000;stroke-width:1;" x1="130.3823" x2="317.9155" y1="133.5659" y2="133.5659"/><text fill="#000000" font-family="Verdana" font-size="13" lengthAdjust="spacing" textLength="95.1133" x="137.3823" y="128.8364">Send message</text></g><path d="M15,148.5659 L310.3579,148.5659 L310.3579,156.3652 L300.3579,166.3652 L15,166.3652 L15,148.5659" fill="#FFFFFF" style="stroke:#000000;stroke-width:1;"/><rect fill="none" height="602.4937" style="stroke:#000000;stroke-width:1;" width="635.7192" x="15" y="148.5659"/><text fill="#000000" font-family="Verdana" font-size="13" font-weight="bold" lengthAdjust="spacing" textLength="250.3579" x="30" y="162.6357">Try Primary Provider (3 attempts)</text><g class="message" data-participant-1="Orch" data-participant-2="VA"><polygon fill="#000000" points="548.0898,184.1646,558.0898,188.1646,548.0898,192.1646,552.0898,188.1646" style="stroke:#000000;stroke-width:1;"/><line style="stroke:#000000;stroke-width:1;" x1="323.9155" x2="554.0898" y1="188.1646" y2="188.1646"/><text fill="#000000" font-family="Verdana" font-size="13" lengthAdjust="spacing" textLength="65.5776" x="330.9155" y="183.4351">Attempt 1</text></g><path d="M25,203.1646 L89.0493,203.1646 L89.0493,210.9639 L79.0493,220.9639 L25,220.9639 L25,203.1646" fill="#FFFFFF" style="stroke:#000000;stroke-width:1;"/><rect fill="none" height="540.895" style="stroke:#000000;stroke-width:1;" width="615.7192" x="25" y="203.1646"/><text fill="#000000" font-family="Verdana" font-size="13" font-weight="bold" lengthAdjust="spacing" textLength="19.0493" x="40" y="217.2344">alt</text><text fill="#000000" font-family="Verdana" font-size="11" font-weight="bold" lengthAdjust="spacing" textLength="60.9082" x="104.0493" y="216.2236">[Success]</text><g class="message" data-participant-1="VA" data-participant-2="Orch"><polygon fill="#000000" points="334.9155,238.7632,324.9155,242.7632,334.9155,246.7632,330.9155,242.7632" style="stroke:#000000;stroke-width:1;"/><line style="stroke:#000000;stroke-width:1;stroke-dasharray:2,2;" x1="328.9155" x2="559.0898" y1="242.7632" y2="242.7632"/><text fill="#000000" font-family="Verdana" font-size="13" lengthAdjust="spacing" textLength="62.2896" x="340.9155" y="238.0337">Response</text></g><g class="message" data-participant-1="Orch" data-participant-2="MS"><polygon fill="#000000" points="141.3823,268.5625,131.3823,272.5625,141.3823,276.5625,137.3823,272.5625" style="stroke:#000000;stroke-width:1;"/><line style="stroke:#000000;stroke-width:1;stroke-dasharray:2,2;" x1="135.3823" x2="322.9155" y1="272.5625" y2="272.5625"/><text fill="#000000" font-family="Verdana" font-size="13" lengthAdjust="spacing" textLength="51.9492" x="147.3823" y="267.833">Success</text></g><line style="stroke:#000000;stroke-width:1;stroke-dasharray:2,2;" x1="25" x2="640.7192" y1="281.5625" y2="281.5625"/><text fill="#000000" font-family="Verdana" font-size="11" font-weight="bold" lengthAdjust="spacing" textLength="180.8071" x="30" y="292.6216">[Failure (timeout, 500, 429)]</text><g class="message" data-participant-1="VA" data-participant-2="Orch"><polygon fill="#000000" points="334.9155,313.7305,324.9155,317.7305,334.9155,321.7305,330.9155,317.7305" style="stroke:#000000;stroke-width:1;"/><line style="stroke:#000000;stroke-width:1;stroke-dasharray:2,2;" x1="328.9155" x2="559.0898" y1="317.7305" y2="317.7305"/><text fill="#000000" font-family="Verdana" font-size="13" lengthAdjust="spacing" textLength="32.7539" x="340.9155" y="313.001">Error</text></g><g class="message" data-participant-1="Orch" data-participant-2="Orch"><line style="stroke:#000000;stroke-width:1;" x1="323.9155" x2="365.9155" y1="347.5298" y2="347.5298"/><line style="stroke:#000000;stroke-width:1;" x1="365.9155" x2="365.9155" y1="347.5298" y2="360.5298"/><line style="stroke:#000000;stroke-width:1;" x1="324.9155" x2="365.9155" y1="360.5298" y2="360.5298"/><polygon fill="#000000" points="334.9155,356.5298,324.9155,360.5298,334.9155,364.5298,330.9155,360.5298" style="stroke:#000000;stroke-width:1;"/><text fill="#000000" font-family="Verdana" font-size="13" lengthAdjust="spacing" textLength="222.1743" x="330.9155" y="342.8003">Wait 100ms (exponential backoff)</text></g><g class="message" data-participant-1="Orch" data-participant-2="VA"><polygon fill="#000000" points="548.0898,386.3291,558.0898,390.3291,548.0898,394.3291,552.0898,390.3291" style="stroke:#000000;stroke-width:1;"/><line style="stroke:#000000;stroke-width:1;" x1="323.9155" x2="554.0898" y1="390.3291" y2="390.3291"/><text fill="#000000" font-family="Verdana" font-size="13" lengthAdjust="spacing" textLength="65.5776" x="330.9155" y="385.5996">Attempt 2</text></g><path d="M35,405.3291 L99.0493,405.3291 L99.0493,413.1284 L89.0493,423.1284 L35,423.1284 L35,405.3291" fill="#FFFFFF" style="stroke:#000000;stroke-width:1;"/><rect fill="none" height="331.7305" style="stroke:#000000;stroke-width:1;" width="595.7192" x="35" y="405.3291"/><text fill="#000000" font-family="Verdana" font-size="13" font-weight="bold" lengthAdjust="spacing" textLength="19.0493" x="50" y="419.3989">alt</text><text fill="#000000" font-family="Verdana" font-size="11" font-weight="bold" lengthAdjust="spacing" textLength="60.9082" x="114.0493" y="418.3882">[Success]</text><g class="message" data-participant-1="VA" data-participant-2="Orch"><polygon fill="#000000" points="334.9155,440.9277,324.9155,444.9277,334.9155,448.9277,330.9155,444.9277" style="stroke:#000000;stroke-width:1;"/><line style="stroke:#000000;stroke-width:1;stroke-dasharray:2,2;" x1="328.9155" x2="559.0898" y1="444.9277" y2="444.9277"/><text fill="#000000" font-family="Verdana" font-size="13" lengthAdjust="spacing" textLength="62.2896" x="340.9155" y="440.1982">Response</text></g><g class="message" data-participant-1="Orch" data-participant-2="MS"><polygon fill="#000000" points="141.3823,470.7271,131.3823,474.7271,141.3823,478.7271,137.3823,474.7271" style="stroke:#000000;stroke-width:1;"/><line style="stroke:#000000;stroke-width:1;stroke-dasharray:2,2;" x1="135.3823" x2="322.9155" y1="474.7271" y2="474.7271"/><text fill="#000000" font-family="Verdana" font-size="13" lengthAdjust="spacing" textLength="51.9492" x="147.3823" y="469.9976">Success</text></g><line style="stroke:#000000;stroke-width:1;stroke-dasharray:2,2;" x1="35" x2="630.7192" y1="483.7271" y2="483.7271"/><text fill="#000000" font-family="Verdana" font-size="11" font-weight="bold" lengthAdjust="spacing" textLength="92.3291" x="40" y="494.7861">[Failure again]</text><g class="message" data-participant-1="VA" data-participant-2="Orch"><polygon fill="#000000" points="334.9155,515.895,324.9155,519.895,334.9155,523.895,330.9155,519.895" style="stroke:#000000;stroke-width:1;"/><line style="stroke:#000000;stroke-width:1;stroke-dasharray:2,2;" x1="328.9155" x2="559.0898" y1="519.895" y2="519.895"/><text fill="#000000" font-family="Verdana" font-size="13" lengthAdjust="spacing" textLength="32.7539" x="340.9155" y="515.1655">Error</text></g><g class="message" data-participant-1="Orch" data-participant-2="Orch"><line style="stroke:#000000;stroke-width:1;" x1="323.9155" x2="365.9155" y1="549.6943" y2="549.6943"/><line style="stroke:#000000;stroke-width:1;" x1="365.9155" x2="365.9155" y1="549.6943" y2="562.6943"/><line style="stroke:#000000;stroke-width:1;" x1="324.9155" x2="365.9155" y1="562.6943" y2="562.6943"/><polygon fill="#000000" points="334.9155,558.6943,324.9155,562.6943,334.9155,566.6943,330.9155,562.6943" style="stroke:#000000;stroke-width:1;"/><text fill="#000000" font-family="Verdana" font-size="13" lengthAdjust="spacing" textLength="78.1333" x="330.9155" y="544.9648">Wait 200ms</text></g><g class="message" data-participant-1="Orch" data-participant-2="VA"><polygon fill="#000000" points="548.0898,588.4937,558.0898,592.4937,548.0898,596.4937,552.0898,592.4937" style="stroke:#000000;stroke-width:1;"/><line style="stroke:#000000;stroke-width:1;" x1="323.9155" x2="554.0898" y1="592.4937" y2="592.4937"/><text fill="#000000" font-family="Verdana" font-size="13" lengthAdjust="spacing" textLength="65.5776" x="330.9155" y="587.7642">Attempt 3</text></g><path d="M45,607.4937 L109.0493,607.4937 L109.0493,615.293 L99.0493,625.293 L45,625.293 L45,607.4937" fill="#FFFFFF" style="stroke:#000000;stroke-width:1;"/><rect fill="none" height="122.5659" style="stroke:#000000;stroke-width:1;" width="575.7192" x="45" y="607.4937"/><text fill="#000000" font-family="Verdana" font-size="13" font-weight="bold" lengthAdjust="spacing" textLength="19.0493" x="60" y="621.5635">alt</text><text fill="#000000" font-family="Verdana" font-size="11" font-weight="bold" lengthAdjust="spacing" textLength="60.9082" x="124.0493" y="620.5527">[Success]</text><g class="message" data-participant-1="VA" data-participant-2="Orch"><polygon fill="#000000" points="334.9155,643.0923,324.9155,647.0923,334.9155,651.0923,330.9155,647.0923" style="stroke:#000000;stroke-width:1;"/><line style="stroke:#000000;stroke-width:1;stroke-dasharray:2,2;" x1="328.9155" x2="559.0898" y1="647.0923" y2="647.0923"/><text fill="#000000" font-family="Verdana" font-size="13" lengthAdjust="spacing" textLength="62.2896" x="340.9155" y="642.3628">Response</text></g><g class="message" data-participant-1="Orch" data-participant-2="MS"><polygon fill="#000000" points="141.3823,672.8916,131.3823,676.8916,141.3823,680.8916,137.3823,676.8916" style="stroke:#000000;stroke-width:1;"/><line style="stroke:#000000;stroke-width:1;stroke-dasharray:2,2;" x1="135.3823" x2="322.9155" y1="676.8916" y2="676.8916"/><text fill="#000000" font-family="Verdana" font-size="13" lengthAdjust="spacing" textLength="51.9492" x="147.3823" y="672.1621">Success</text></g><line style="stroke:#000000;stroke-width:1;stroke-dasharray:2,2;" x1="45" x2="620.7192" y1="685.8916" y2="685.8916"/><text fill="#000000" font-family="Verdana" font-size="11" font-weight="bold" lengthAdjust="spacing" textLength="125.5869" x="50" y="696.9507">[All attempts failed]</text><g class="message" data-participant-1="VA" data-participant-2="Orch"><polygon fill="#000000" points="334.9155,718.0596,324.9155,722.0596,334.9155,726.0596,330.9155,722.0596" style="stroke:#000000;stroke-width:1;"/><line style="stroke:#000000;stroke-width:1;stroke-dasharray:2,2;" x1="328.9155" x2="559.0898" y1="722.0596" y2="722.0596"/><text fill="#000000" font-family="Verdana" font-size="13" lengthAdjust="spacing" textLength="32.7539" x="340.9155" y="717.3301">Error</text></g><path d="M35,765.0596 L99.0493,765.0596 L99.0493,772.8589 L89.0493,782.8589 L35,782.8589 L35,765.0596" fill="#FFFFFF" style="stroke:#000000;stroke-width:1;"/><rect fill="none" height="213.9639" style="stroke:#000000;stroke-width:1;" width="709.2817" x="35" y="765.0596"/><text fill="#000000" font-family="Verdana" font-size="13" font-weight="bold" lengthAdjust="spacing" textLength="19.0493" x="50" y="779.1294">alt</text><text fill="#000000" font-family="Verdana" font-size="11" font-weight="bold" lengthAdjust="spacing" textLength="216.4336" x="114.0493" y="778.1187">[Primary exhausted - Try Fallback]</text><path d="M749.2817,770.0596 L749.2817,937.0596 L1075.2817,937.0596 L1075.2817,780.0596 L1065.2817,770.0596 L749.2817,770.0596" fill="#FFFFFF" style="stroke:#000000;stroke-width:1;"/><path d="M1065.2817,770.0596 L1065.2817,780.0596 L1075.2817,780.0596 L1065.2817,770.0596" fill="#FFFFFF" style="stroke:#000000;stroke-width:1;"/><text fill="#000000" font-family="Verdana" font-size="13" font-weight="bold" lengthAdjust="spacing" textLength="111.7314" x="755.2817" y="788.1294">Retry Strategy:</text><text fill="#000000" font-family="Verdana" font-size="13" lengthAdjust="spacing" textLength="119.8628" x="755.2817" y="803.9287">&#8226; Max attempts: 3</text><text fill="#000000" font-family="Verdana" font-size="13" lengthAdjust="spacing" textLength="221.584" x="755.2817" y="819.728">&#8226; Backoff: 100ms, 200ms, 400ms</text><text fill="#000000" font-family="Verdana" font-size="13" lengthAdjust="spacing" textLength="305.2842" x="755.2817" y="835.5273">&#8226; Retryable: 500, 502, 503, 504, 429, timeout</text><text fill="#000000" font-family="Verdana" font-size="13" lengthAdjust="spacing" textLength="235.3901" x="755.2817" y="851.3267">&#8226; Not retryable: 400, 401, 403, 404</text><text fill="#000000" font-family="Verdana" font-size="13" lengthAdjust="spacing" textLength="4.5703" x="755.2817" y="867.126">&#160;</text><text fill="#000000" font-family="Verdana" font-size="13" font-weight="bold" lengthAdjust="spacing" textLength="65.3999" x="755.2817" y="882.9253">Fallback:</text><text fill="#000000" font-family="Verdana" font-size="13" lengthAdjust="spacing" textLength="236.9707" x="755.2817" y="898.7246">&#8226; Triggered after primary exhausted</text><text fill="#000000" font-family="Verdana" font-size="13" lengthAdjust="spacing" textLength="169.6665" x="755.2817" y="914.5239">&#8226; Same retry logic applies</text><text fill="#000000" font-family="Verdana" font-size="13" lengthAdjust="spacing" textLength="138.7598" x="755.2817" y="930.3232">&#8226; All attempts logged</text><g class="message" data-participant-1="Orch" data-participant-2="VB"><polygon fill="#000000" points="660.5005,800.6582,670.5005,804.6582,660.5005,808.6582,664.5005,804.6582" style="stroke:#000000;stroke-width:1;"/><line style="stroke:#000000;stroke-width:1;" x1="323.9155" x2="666.5005" y1="804.6582" y2="804.6582"/><text fill="#000000" font-family="Verdana" font-size="13" lengthAdjust="spacing" textLength="134.4688" x="330.9155" y="799.9287">Try fallback provider</text></g><path d="M45,819.6582 L109.0493,819.6582 L109.0493,827.4575 L99.0493,837.4575 L45,837.4575 L45,819.6582" fill="#FFFFFF" style="stroke:#000000;stroke-width:1;"/><rect fill="none" height="152.3652" style="stroke:#000000;stroke-width:1;" width="689.2817" x="45" y="819.6582"/><text fill="#000000" font-family="Verdana" font-size="13" font-weight="bold" lengthAdjust="spacing" textLength="19.0493" x="60" y="833.728">alt</text><text fill="#000000" font-family="Verdana" font-size="11" font-weight="bold" lengthAdjust="spacing" textLength="60.9082" x="124.0493" y="832.7173">[Success]</text><g class="message" data-participant-1="VB" data-participant-2="Orch"><polygon fill="#000000" points="334.9155,855.2568,324.9155,859.2568,334.9155,863.2568,330.9155,859.2568" style="stroke:#000000;stroke-width:1;"/><line style="stroke:#000000;stroke-width:1;stroke-dasharray:2,2;" x1="328.9155" x2="671.5005" y1="859.2568" y2="859.2568"/><text fill="#000000" font-family="Verdana" font-size="13" lengthAdjust="spacing" textLength="62.2896" x="340.9155" y="854.5273">Response</text></g><g class="message" data-participant-1="Orch" data-participant-2="MS"><polygon fill="#000000" points="141.3823,885.0562,131.3823,889.0562,141.3823,893.0562,137.3823,889.0562" style="stroke:#000000;stroke-width:1;"/><line style="stroke:#000000;stroke-width:1;stroke-dasharray:2,2;" x1="135.3823" x2="322.9155" y1="889.0562" y2="889.0562"/><text fill="#000000" font-family="Verdana" font-size="13" lengthAdjust="spacing" textLength="153.626" x="147.3823" y="884.3267">Success (used fallback)</text></g><line style="stroke:#000000;stroke-width:1;stroke-dasharray:2,2;" x1="45" x2="734.2817" y1="898.0562" y2="898.0562"/><text fill="#000000" font-family="Verdana" font-size="11" font-weight="bold" lengthAdjust="spacing" textLength="121.6123" x="50" y="909.1152">[Fallback also fails]</text><g class="message" data-participant-1="VB" data-participant-2="Orch"><polygon fill="#000000" points="334.9155,930.2241,324.9155,934.2241,334.9155,938.2241,330.9155,934.2241" style="stroke:#000000;stroke-width:1;"/><line style="stroke:#000000;stroke-width:1;stroke-dasharray:2,2;" x1="328.9155" x2="671.5005" y1="934.2241" y2="934.2241"/><text fill="#000000" font-family="Verdana" font-size="13" lengthAdjust="spacing" textLength="32.7539" x="340.9155" y="929.4946">Error</text></g><g class="message" data-participant-1="Orch" data-participant-2="MS"><polygon fill="#000000" points="141.3823,960.0234,131.3823,964.0234,141.3823,968.0234,137.3823,964.0234" style="stroke:#000000;stroke-width:1;"/><line style="stroke:#000000;stroke-width:1;stroke-dasharray:2,2;" x1="135.3823" x2="322.9155" y1="964.0234" y2="964.0234"/><text fill="#000000" font-family="Verdana" font-size="13" lengthAdjust="spacing" textLength="169.5332" x="147.3823" y="959.2939">Error (all providers failed)</text></g><!--SRC=[bLJDRjim3BxhARWE6E8W0TmaFSo70SxGth8DTP5UTb4TsX4gMuOa5-bjpx97svECadyIfqcwEOYSY1y_ygD8VR1RB10goKN9pBCeAwvv0KyyVSwrgilDLoMLXeztj-x3c1LM8joZrQ_m2Uwub0uAYTNSOluAKqX4KKcH2TmmHcHMfABYfOMh5Hh3SuG4zOj8yGguWLKon7pNwHQD8rFQ0zp64BB6SgDq_BCS_T2YuFeryC1rV0gs95YNP8jRChPAOFh5KqUKJRc1eacDCQUvWWSIrvBJMxs83MeOpO5RYqLbJS207kVlUDPn175ZWMlcJLnQIEeq9Lh_tpth6APzr7iqbIeDzjQ6ZEoh91gueZH8THQorWWZAmfKjPt0JHXEO37x79pclzLQQNR4tXaVkQ1Cmx0mCC8TvO6b5LpwGrTP5hprEvGusvjFoNnVwaMvRoJpt7NcMVOZeMV4pfpOqwX3QVCXv9oyVvFuhinUQYnbtrgGaMuQdOln6j43ddBlqlrsR_TbJaVNphZRyjfOtD2akZRlXcFOqSl86xDklAjs22vqz_9_knj6jQ4qkXZ1ORUtORaqoXVaJ9nX7GP1l0b6nDGdtzKs65QdL1P1YtnhQNyyRgwsxZwBncFQ_VFhDwpuhZ-aY3gbsLqs8nCrupHf6eq6q_TR0_64_4bYr0pjJJXpozmj2p_34sZ7klNufYpelTV2ZtfuxPQvMnRCPzgLQP_Z0yd8KLDLUMRfoggE3xt59PokV1y1fCf52hoYAnkxZ0VzI80SVQd0LOhz1G00]--></g></svg>